<svg width="452" height="317" viewBox="0 0 452 317" fill="none" xmlns="http://www.w3.org/2000/svg">
<path d="M72.9541 313.666L6.22461 247.572L109.814 238.675H376.098L443.463 288.881L72.9541 313.666Z" fill="#D9D9D9" stroke="#D16666" stroke-width="5"/>
<path d="M325.422 143.177L340.107 140.677L444.776 239.922C407.924 237.895 332.709 236.734 326.668 248.314C320.626 259.894 251.668 256.992 217.944 254.094C219.393 259.698 217.725 266.023 215.622 270.315C190.381 281.607 155.558 267.407 141.302 258.895C113.196 244.5 110.74 229.476 113.025 223.763C92.4594 210.053 104.456 186.632 113.025 176.635C105.598 174.636 91.4315 166.353 94.1735 149.215C96.9155 132.078 144.444 124.937 167.865 123.509C190.486 107.742 216.135 116.94 226.132 123.509C230.476 126.363 223.904 131.221 252.695 131.221C281.486 131.221 310.569 137.179 325.422 143.177Z" fill="white"/>
<path d="M282.597 227.694C267.099 230.839 248.464 214.982 241.084 206.66H222.264C220.714 215.96 184.717 224.558 166.912 227.694C187.4 223.266 195.191 235.259 196.525 241.809C210.496 242.164 216.278 247.653 217.944 254.094M217.944 254.094C219.393 259.698 217.725 266.023 215.622 270.315C190.381 281.607 155.558 267.407 141.302 258.895C113.196 244.5 110.74 229.476 113.025 223.763C92.4594 210.053 104.456 186.632 113.025 176.635C105.598 174.636 91.4315 166.353 94.1735 149.215C96.9155 132.078 144.444 124.937 167.865 123.509C190.486 107.742 216.135 116.94 226.132 123.509C230.476 126.363 223.904 131.221 252.695 131.221C281.486 131.221 310.569 137.179 325.422 143.177L340.107 140.677L444.776 239.922C407.924 237.895 332.709 236.734 326.668 248.314C320.626 259.894 251.668 256.992 217.944 254.094Z" stroke="#D16666" stroke-width="5"/>
<path d="M224.393 160.191C215.399 160.582 194.419 164.18 182.454 175.442C167.496 189.519 156.938 192.452 157.232 203.01C157.525 213.568 171.966 226.812 182.454 224.727" stroke="#D16666" stroke-width="5"/>
<path d="M176.798 249.128L190.073 222.937L180.271 224.872L169.59 222.937L162.692 243.418L156.122 282.88L176.798 249.128Z" fill="#2C4251" stroke="#D16666" stroke-width="5"/>
<path d="M269.817 9.56992C266.939 1.2953 260.223 2.5245 257.225 4.17344L194.612 166.49L202.239 164.856L210.387 161.735L269.817 9.56992Z" fill="#2C4251" stroke="#D16666" stroke-width="5"/>
<path d="M111.855 177.689C123.824 193.933 151.426 226.64 166.082 227.519" stroke="#D16666" stroke-width="5"/>
<path d="M113.299 224.222C123.436 232.405 149.549 249.676 158.929 251.728" stroke="#D16666" stroke-width="5"/>
<path d="M196.86 241.808C198.204 250.846 192.986 266.036 172.762 256.656" stroke="#D16666" stroke-width="5"/>
<path d="M167.914 138.484C166.693 148.255 162.418 167.943 155.09 168.529M155.09 168.529C150.816 156.804 140.434 134.381 133.106 138.484M155.09 168.529C157.044 173.659 162.344 183.918 167.914 183.918" stroke="#D16666" stroke-width="5"/>
</svg>
