<svg width="71" height="70" viewBox="0 0 71 70" fill="none" xmlns="http://www.w3.org/2000/svg">
<path d="M21.7945 55.433C22.6847 53.8183 22.2294 51.8025 22.0248 50.9013L47.7331 49.9873C46.4438 56.0804 49.204 57.7052 50.8795 57.7941C53.3659 59.683 66.3754 63.3887 70.5962 65.1151L64.0189 68.623L52.8375 66.869L37.2713 69.4999L23.459 66.869H14.2508L5.70032 67.5267L0 65.3343C1.5347 63.1419 4.93703 61.7038 6.17768 61.2976C11.0124 60.0155 20.9043 57.0477 21.7945 55.433Z" fill="#2C4251"/>
<path d="M11.9716 30.3383C8.68712 4.46108 23.291 0.907959 31.0035 2.36604C32.0779 -0.460595 37.4651 -3.06724 50.4191 9.11928C53.5782 11.6645 59.7969 18.382 59.3978 24.8896C58.9987 31.3973 60.5873 33.1265 61.4314 33.1777C61.0989 34.2009 60.5643 36.6234 61.0861 38.1275C61.6079 39.6316 58.285 41.1588 56.5584 41.7343C56.5456 42.3739 56.9114 43.6606 58.4769 43.6912C60.4338 43.7296 53.5655 48.9864 48.4622 48.9864C38.363 45.4256 26.4758 48.2701 21.7945 50.1375C20.4516 50.6236 16.8294 51.304 13.0844 50.1375C9.33943 48.9711 10.424 46.0702 11.4345 44.7656C12.8926 44.9319 15.3483 44.6428 13.5065 42.1564C11.2042 39.0484 12.6623 38.2042 13.5065 35.5567C14.1818 33.4386 12.7646 31.1952 11.9716 30.3383Z" fill="#2C4251"/>
<path d="M16.2319 25.9255C17.0914 8.52059 27.5128 6.54834 31.8487 6.54834C35.8776 6.54834 50.8422 8.92732 51.8398 25.9255C53.2315 49.637 43.5518 56.2383 34.573 56.8139C25.5943 57.3895 15.1575 47.6817 16.2319 25.9255Z" fill="white"/>
<path d="M14.6605 33.8869C12.9722 26.2128 15.0826 25.4454 16.3489 26.0209C16.886 29.0522 17.7993 35.8438 17.1546 38.76C17.0267 40.3332 16.3489 41.5611 14.6605 33.8869Z" fill="white"/>
<path d="M53.6001 33.2505C54.9508 24.9932 52.7304 25.3078 51.4514 26.4973C50.4691 28.554 50.9398 36.1283 51.2979 39.6584C51.4514 40.9375 52.2495 41.5079 53.6001 33.2505Z" fill="white"/>
<path d="M15.7867 28.9398C15.1289 28.3551 14.2081 28.1067 15.7867 31.7899C16.1625 32.6669 15.1287 32.8862 16.2249 33.9824" stroke="#2C4251"/>
<path d="M31.2088 23.8078C27.523 21.6224 17.9678 23.5307 18.4324 24.5205C28.8084 24.9956 27.4533 26.4209 30.0086 26.3022C32.0528 26.2071 31.6605 24.5997 31.2088 23.8078Z" fill="#2C4251"/>
<path d="M34.3542 23.0526C41.4691 21.2927 48.3845 23.3411 48.2312 24.3149C46.8895 24.3149 36.5393 25.9738 35.1209 25.8656C33.9862 25.7791 34.137 23.9542 34.3542 23.0526Z" fill="#2C4251"/>
<path d="M17.2039 29.7728C16.9876 28.067 16.4685 27.3305 16.0052 27.4053C15.8198 27.1659 15.9923 26.5307 16.0052 26.1816C16.9426 26.0638 17.2293 26.0863 17.287 26.1242C20.4826 23.9479 24.729 24.5755 25.7753 24.8722C26.6633 25.1216 28.7714 25.8898 30.254 26.5182C31.7367 27.1467 34.3724 26.7801 35.505 26.5182C38.671 24.3485 42.532 24.573 43.7289 24.6852C44.9258 24.7974 51.2965 25.8449 51.6054 26.5182C51.8525 27.0569 51.7083 27.4161 51.6054 27.5283L50.3699 27.3038C49.3197 26.8549 49.1086 27.4909 49.1343 27.865C48.8872 33.641 45.2733 35.7334 43.4973 36.0576C42.1717 36.3818 38.9567 36.4317 36.7019 34.0375C34.4471 31.6433 34.5526 28.9249 34.8872 27.865C33.3428 28.2241 31.8499 28.0146 31.2965 27.865C31.5925 28.2515 31.8525 29.7429 30.5243 32.616C28.8641 36.2072 26.0456 36.3943 22.7251 36.3943C18.8485 36.3943 17.4741 31.9052 17.2039 29.7728Z" fill="#2C4251"/>
<path d="M25.2823 25.5769C19.6686 24.7703 18.3674 27.531 18.4185 29.0121C18.377 29.5722 18.802 35.7706 23.365 35.5093C27.0155 35.3002 27.7747 35.0238 28.9251 33.7916C29.6664 32.7337 31.0417 30.1846 30.6123 28.452C30.1828 26.7195 26.88 25.8133 25.2823 25.5769Z" fill="white"/>
<path d="M42.791 25.5058C39.4866 25.1386 36.5552 26.1559 35.7493 28.2976C34.5692 31.4337 38.149 34.7228 40.7847 35.2965C43.4203 35.8701 44.3881 35.2965 46.0167 33.9197C47.3935 32.7557 49.3212 28.2977 47.4723 26.9591C45.9931 25.8882 43.7351 25.544 42.791 25.5058Z" fill="white"/>
<path d="M28.9406 41.2178C30.9137 44.8507 36.1757 41.6563 41.2183 41.6563C39.2449 45.6026 26.7483 47.1373 28.9406 41.2178Z" stroke="#2C4251"/>
<path d="M21.7051 30.2556C22.3628 29.5248 23.8975 29.1595 26.5284 29.8171" stroke="#2C4251"/>
<path d="M39.4758 29.9208C40.2177 29.2756 42.2245 28.4029 44.3166 30.0734" stroke="#2C4251"/>
<path d="M51.9609 28.7208C52.9841 27.99 53.7353 27.3327 52.3994 32.0095C51.9611 33.5441 52.8378 33.1057 52.3994 34.4211" stroke="#2C4251"/>
</svg>
