<svg width="21" height="22" viewBox="0 0 21 22" fill="none" xmlns="http://www.w3.org/2000/svg">
<path fill-rule="evenodd" clip-rule="evenodd" d="M11.0665 6.98169C11.3837 6.98169 11.6408 7.23882 11.6408 7.55601V11.1096C11.6408 11.4268 11.3837 11.6839 11.0665 11.6839C10.7493 11.6839 10.4922 11.4268 10.4922 11.1096V7.55601C10.4922 7.23882 10.7493 6.98169 11.0665 6.98169Z" fill="#2C4251"/>
<path fill-rule="evenodd" clip-rule="evenodd" d="M11.0665 12.2922C11.3837 12.2922 11.6408 12.5494 11.6408 12.8666V13.5692C11.6408 13.8864 11.3837 14.1435 11.0665 14.1435C10.7493 14.1435 10.4922 13.8864 10.4922 13.5692V12.8666C10.4922 12.5494 10.7493 12.2922 11.0665 12.2922Z" fill="#2C4251"/>
<path fill-rule="evenodd" clip-rule="evenodd" d="M5.89242 1.83327C6.15772 1.65942 6.51372 1.73356 6.68756 1.99886L7.61253 3.41043C7.78637 3.67573 7.71223 4.03173 7.44693 4.20557C7.18163 4.37942 6.82563 4.30528 6.65179 4.03998L5.72682 2.62842C5.55298 2.36311 5.62712 2.00711 5.89242 1.83327Z" fill="#2C4251"/>
<path fill-rule="evenodd" clip-rule="evenodd" d="M2.18446 5.3019C2.32468 5.01739 2.669 4.90043 2.9535 5.04065L4.46725 5.78673C4.75176 5.92695 4.86873 6.27126 4.7285 6.55577C4.58828 6.84028 4.24396 6.95724 3.95946 6.81702L2.44571 6.07094C2.1612 5.93072 2.04424 5.58641 2.18446 5.3019Z" fill="#2C4251"/>
<path fill-rule="evenodd" clip-rule="evenodd" d="M0.996392 10.0374C1.01607 9.7208 1.28865 9.48011 1.60523 9.49979L3.2896 9.60447C3.60617 9.62415 3.84686 9.89673 3.82719 10.2133C3.80751 10.5299 3.53493 10.7706 3.21835 10.7509L1.53398 10.6462C1.2174 10.6265 0.976717 10.3539 0.996392 10.0374Z" fill="#2C4251"/>
<path fill-rule="evenodd" clip-rule="evenodd" d="M2.32052 15.1521C2.14761 14.8862 2.22301 14.5305 2.48893 14.3576L3.90376 13.4376C4.16968 13.2647 4.52541 13.3401 4.69831 13.606C4.87122 13.8719 4.79582 14.2277 4.5299 14.4006L3.11507 15.3205C2.84916 15.4934 2.49342 15.418 2.32052 15.1521Z" fill="#2C4251"/>
<path fill-rule="evenodd" clip-rule="evenodd" d="M10.7238 0.578918C11.0409 0.579554 11.2976 0.8372 11.2969 1.15439L11.2935 2.842C11.2929 3.15919 11.0353 3.4158 10.7181 3.41517C10.4009 3.41453 10.1443 3.15688 10.1449 2.8397L10.1483 1.15208C10.1489 0.834895 10.4066 0.578281 10.7238 0.578918Z" fill="#2C4251"/>
<path fill-rule="evenodd" clip-rule="evenodd" d="M15.5238 1.8281C15.8043 1.97615 15.9117 2.32357 15.7637 2.60408L14.976 4.09659C14.8279 4.37711 14.4805 4.48449 14.2 4.33644C13.9195 4.18839 13.8121 3.84097 13.9601 3.56046L14.7478 2.06795C14.8959 1.78743 15.2433 1.68005 15.5238 1.8281Z" fill="#2C4251"/>
<path fill-rule="evenodd" clip-rule="evenodd" d="M19.0924 5.2853C19.2671 5.55004 19.1941 5.90627 18.9293 6.08097L17.5208 7.01047C17.256 7.18517 16.8998 7.11218 16.7251 6.84744C16.5504 6.5827 16.6234 6.22646 16.8881 6.05176L18.2967 5.12226C18.5614 4.94756 18.9177 5.02056 19.0924 5.2853Z" fill="#2C4251"/>
<path fill-rule="evenodd" clip-rule="evenodd" d="M20.45 10.1803C20.4423 10.4973 20.179 10.7482 19.8619 10.7405L18.1748 10.6998C17.8577 10.6921 17.6069 10.4289 17.6145 10.1118C17.6222 9.79469 17.8854 9.54384 18.2025 9.5515L19.8897 9.59224C20.2068 9.5999 20.4576 9.86316 20.45 10.1803Z" fill="#2C4251"/>
<path fill-rule="evenodd" clip-rule="evenodd" d="M16.7613 13.5851C16.9428 13.325 17.3009 13.2614 17.561 13.4429L18.9448 14.4088C19.2049 14.5904 19.2686 14.9484 19.087 15.2085C18.9055 15.4686 18.5475 15.5323 18.2874 15.3507L16.9035 14.3848C16.6434 14.2032 16.5798 13.8452 16.7613 13.5851Z" fill="#2C4251"/>
<path fill-rule="evenodd" clip-rule="evenodd" d="M11.4355 5.306C9.868 5.18685 8.13629 5.81412 6.9799 7.46778C6.10279 8.72206 6.07877 10.0792 6.46398 11.3596C6.85354 12.6545 7.65411 13.8311 8.34986 14.6219C8.56083 14.8617 8.79568 15.1382 8.98667 15.4591C9.21607 15.8446 9.3421 16.1565 9.39786 16.67C9.44417 17.0963 9.444 17.6855 9.44374 18.6071C9.44372 18.6772 9.4437 18.7493 9.4437 18.8233C9.44369 20.1618 10.1999 20.685 10.7587 20.7024C11.0531 20.7115 11.3552 20.5949 11.5933 20.3199C11.8338 20.0423 12.038 19.5661 12.038 18.8233C12.038 17.6328 12.1457 16.8163 12.3205 16.2008C12.4988 15.5729 12.7398 15.1819 12.9525 14.8532C14.8435 11.9305 15.7336 10.0648 14.8176 7.55432C14.3597 6.29953 13.0256 5.42687 11.4355 5.306ZM11.5225 4.16067C13.438 4.30627 15.2456 5.37657 15.8966 7.1606C17.022 10.2449 15.8073 12.5554 13.9168 15.4772C13.7281 15.7689 13.5579 16.0481 13.4254 16.5146C13.2894 16.9937 13.1866 17.6961 13.1866 18.8233C13.1866 19.7742 12.923 20.5391 12.4616 21.0719C11.998 21.6073 11.3643 21.8704 10.723 21.8505C9.41029 21.8096 8.29506 20.6391 8.29507 18.8233C8.29507 18.7725 8.29507 18.7229 8.29508 18.6744C8.29517 17.683 8.29522 17.1557 8.25594 16.794C8.22067 16.4692 8.15857 16.3137 7.99963 16.0466C7.86721 15.8241 7.69416 15.6156 7.48746 15.3806C6.72472 14.5136 5.81657 13.1947 5.36405 11.6905C4.90717 10.1719 4.90769 8.42672 6.03859 6.80953C7.44658 4.79608 9.58439 4.01334 11.5225 4.16067Z" fill="#2C4251"/>
<path fill-rule="evenodd" clip-rule="evenodd" d="M7.78418 16.6741C7.78418 15.9763 8.34987 15.4106 9.04768 15.4106H12.6453C13.3432 15.4106 13.9088 15.9763 13.9088 16.6741V18.4115C13.9088 19.1093 13.3432 19.6749 12.6453 19.6749H9.04768C8.34987 19.6749 7.78418 19.1093 7.78418 18.4115V16.6741ZM9.04768 16.5593C8.98424 16.5593 8.93281 16.6107 8.93281 16.6741V18.4115C8.93281 18.4749 8.98424 18.5263 9.04768 18.5263H12.6453C12.7088 18.5263 12.7602 18.4749 12.7602 18.4115V16.6741C12.7602 16.6107 12.7088 16.5593 12.6453 16.5593H9.04768Z" fill="#2C4251"/>
</svg>
