<svg width="225" height="67" viewBox="0 0 225 67" fill="none" xmlns="http://www.w3.org/2000/svg">
<ellipse cx="3.51203" cy="37.7034" rx="2.84406" ry="2.80971" fill="#D9D9D9"/>
<ellipse cx="13.1829" cy="37.7033" rx="2.84406" ry="2.80971" fill="#D9D9D9"/>
<ellipse cx="3.51203" cy="46.4137" rx="2.84406" ry="2.80971" fill="#D9D9D9"/>
<ellipse cx="13.1829" cy="46.4137" rx="2.84406" ry="2.80971" fill="#D9D9D9"/>
<ellipse cx="22.5677" cy="37.7034" rx="2.84406" ry="2.80971" fill="#D9D9D9"/>
<ellipse cx="22.5677" cy="46.4137" rx="2.84406" ry="2.80971" fill="#D9D9D9"/>
<ellipse cx="31.9534" cy="37.7034" rx="2.84406" ry="2.80971" fill="#D9D9D9"/>
<ellipse cx="41.6214" cy="37.7034" rx="2.84406" ry="2.80971" fill="#D9D9D9"/>
<ellipse cx="31.9534" cy="46.4137" rx="2.84406" ry="2.80971" fill="#D9D9D9"/>
<ellipse cx="41.6214" cy="46.4137" rx="2.84406" ry="2.80971" fill="#D9D9D9"/>
<ellipse cx="51.0081" cy="37.7034" rx="2.84406" ry="2.80971" fill="#D9D9D9"/>
<ellipse cx="51.0081" cy="46.4137" rx="2.84406" ry="2.80971" fill="#D9D9D9"/>
<ellipse cx="3.51203" cy="55.1233" rx="2.84406" ry="2.80971" fill="#D9D9D9"/>
<ellipse cx="13.1829" cy="55.1237" rx="2.84406" ry="2.80971" fill="#D9D9D9"/>
<ellipse cx="3.51203" cy="63.8335" rx="2.84406" ry="2.80971" fill="#D9D9D9"/>
<ellipse cx="13.1829" cy="63.8335" rx="2.84406" ry="2.80971" fill="#D9D9D9"/>
<ellipse cx="22.5677" cy="55.1233" rx="2.84406" ry="2.80971" fill="#D9D9D9"/>
<ellipse cx="22.5677" cy="63.8335" rx="2.84406" ry="2.80971" fill="#D9D9D9"/>
<ellipse cx="31.9534" cy="55.1233" rx="2.84406" ry="2.80971" fill="#D9D9D9"/>
<ellipse cx="41.6214" cy="55.1237" rx="2.84406" ry="2.80971" fill="#D9D9D9"/>
<ellipse cx="31.9534" cy="63.8335" rx="2.84406" ry="2.80971" fill="#D9D9D9"/>
<ellipse cx="41.6214" cy="63.8335" rx="2.84406" ry="2.80971" fill="#D9D9D9"/>
<ellipse cx="51.0081" cy="55.1233" rx="2.84406" ry="2.80971" fill="#D9D9D9"/>
<ellipse cx="51.0081" cy="63.8338" rx="2.84406" ry="2.80971" fill="#D9D9D9"/>
<ellipse cx="3.51203" cy="2.86354" rx="2.84406" ry="2.80971" fill="#D9D9D9"/>
<ellipse cx="13.1829" cy="2.86293" rx="2.84406" ry="2.80971" fill="#D9D9D9"/>
<ellipse cx="3.51203" cy="11.5731" rx="2.84406" ry="2.80971" fill="#D9D9D9"/>
<ellipse cx="13.1829" cy="11.5731" rx="2.84406" ry="2.80971" fill="#D9D9D9"/>
<ellipse cx="22.5677" cy="2.86293" rx="2.84406" ry="2.80971" fill="#D9D9D9"/>
<ellipse cx="22.5677" cy="11.5731" rx="2.84406" ry="2.80971" fill="#D9D9D9"/>
<ellipse cx="31.9534" cy="2.86293" rx="2.84406" ry="2.80971" fill="#D9D9D9"/>
<ellipse cx="41.6214" cy="2.86293" rx="2.84406" ry="2.80971" fill="#D9D9D9"/>
<ellipse cx="31.9534" cy="11.5731" rx="2.84406" ry="2.80971" fill="#D9D9D9"/>
<ellipse cx="41.6214" cy="11.5731" rx="2.84406" ry="2.80971" fill="#D9D9D9"/>
<ellipse cx="51.0081" cy="2.86293" rx="2.84406" ry="2.80971" fill="#D9D9D9"/>
<ellipse cx="51.0081" cy="11.5731" rx="2.84406" ry="2.80971" fill="#D9D9D9"/>
<ellipse cx="3.51203" cy="20.2829" rx="2.84406" ry="2.80971" fill="#D9D9D9"/>
<ellipse cx="13.1829" cy="20.2831" rx="2.84406" ry="2.80971" fill="#D9D9D9"/>
<ellipse cx="3.51203" cy="28.9934" rx="2.84406" ry="2.80971" fill="#D9D9D9"/>
<ellipse cx="13.1829" cy="28.9932" rx="2.84406" ry="2.80971" fill="#D9D9D9"/>
<ellipse cx="22.5677" cy="20.2831" rx="2.84406" ry="2.80971" fill="#D9D9D9"/>
<ellipse cx="22.5677" cy="28.9934" rx="2.84406" ry="2.80971" fill="#D9D9D9"/>
<ellipse cx="31.9515" cy="20.2831" rx="2.84406" ry="2.80971" fill="#D9D9D9"/>
<ellipse cx="41.6214" cy="20.2831" rx="2.84406" ry="2.80971" fill="#D9D9D9"/>
<ellipse cx="31.9534" cy="28.9934" rx="2.84406" ry="2.80971" fill="#D9D9D9"/>
<ellipse cx="41.6214" cy="28.9932" rx="2.84406" ry="2.80971" fill="#D9D9D9"/>
<ellipse cx="51.0081" cy="20.2829" rx="2.84406" ry="2.80971" fill="#D9D9D9"/>
<ellipse cx="51.0081" cy="28.9934" rx="2.84406" ry="2.80971" fill="#D9D9D9"/>
<ellipse cx="60.3919" cy="37.7033" rx="2.84406" ry="2.80971" fill="#D9D9D9"/>
<ellipse cx="70.0628" cy="37.7034" rx="2.84406" ry="2.80971" fill="#D9D9D9"/>
<ellipse cx="60.3919" cy="46.4133" rx="2.84406" ry="2.80971" fill="#D9D9D9"/>
<ellipse cx="70.0628" cy="46.4133" rx="2.84406" ry="2.80971" fill="#D9D9D9"/>
<ellipse cx="79.4495" cy="37.7034" rx="2.84406" ry="2.80971" fill="#D9D9D9"/>
<ellipse cx="79.4495" cy="46.4137" rx="2.84406" ry="2.80971" fill="#D9D9D9"/>
<ellipse cx="88.8343" cy="37.7033" rx="2.84406" ry="2.80971" fill="#D9D9D9"/>
<ellipse cx="98.5052" cy="37.7034" rx="2.84406" ry="2.80971" fill="#D9D9D9"/>
<ellipse cx="88.8343" cy="46.4133" rx="2.84406" ry="2.80971" fill="#D9D9D9"/>
<ellipse cx="98.5052" cy="46.4133" rx="2.84406" ry="2.80971" fill="#D9D9D9"/>
<ellipse cx="107.889" cy="37.7034" rx="2.84406" ry="2.80971" fill="#D9D9D9"/>
<ellipse cx="107.889" cy="46.4137" rx="2.84406" ry="2.80971" fill="#D9D9D9"/>
<ellipse cx="60.3919" cy="55.1233" rx="2.84406" ry="2.80971" fill="#D9D9D9"/>
<ellipse cx="70.0628" cy="55.1237" rx="2.84406" ry="2.80971" fill="#D9D9D9"/>
<ellipse cx="60.3919" cy="63.8338" rx="2.84406" ry="2.80971" fill="#D9D9D9"/>
<ellipse cx="70.0628" cy="63.8335" rx="2.84406" ry="2.80971" fill="#D9D9D9"/>
<ellipse cx="79.4495" cy="55.1233" rx="2.84406" ry="2.80971" fill="#D9D9D9"/>
<ellipse cx="79.4495" cy="63.8338" rx="2.84406" ry="2.80971" fill="#D9D9D9"/>
<ellipse cx="88.8343" cy="55.1233" rx="2.84406" ry="2.80971" fill="#D9D9D9"/>
<ellipse cx="98.5052" cy="55.1233" rx="2.84406" ry="2.80971" fill="#D9D9D9"/>
<ellipse cx="88.8343" cy="63.8338" rx="2.84406" ry="2.80971" fill="#D9D9D9"/>
<ellipse cx="98.5032" cy="63.8338" rx="2.84406" ry="2.80971" fill="#D9D9D9"/>
<ellipse cx="107.889" cy="55.1233" rx="2.84406" ry="2.80971" fill="#D9D9D9"/>
<ellipse cx="107.889" cy="63.8338" rx="2.84406" ry="2.80971" fill="#D9D9D9"/>
<ellipse cx="60.3919" cy="2.86281" rx="2.84406" ry="2.80971" fill="#D9D9D9"/>
<ellipse cx="70.0628" cy="2.86293" rx="2.84406" ry="2.80971" fill="#D9D9D9"/>
<ellipse cx="60.3919" cy="11.5728" rx="2.84406" ry="2.80971" fill="#D9D9D9"/>
<ellipse cx="70.0628" cy="11.5731" rx="2.84406" ry="2.80971" fill="#D9D9D9"/>
<ellipse cx="79.4495" cy="2.86293" rx="2.84406" ry="2.80971" fill="#D9D9D9"/>
<ellipse cx="79.4495" cy="11.5731" rx="2.84406" ry="2.80971" fill="#D9D9D9"/>
<ellipse cx="88.8343" cy="2.86293" rx="2.84406" ry="2.80971" fill="#D9D9D9"/>
<ellipse cx="98.5052" cy="2.86293" rx="2.84406" ry="2.80971" fill="#D9D9D9"/>
<ellipse cx="88.8343" cy="11.5731" rx="2.84406" ry="2.80971" fill="#D9D9D9"/>
<ellipse cx="98.5052" cy="11.5728" rx="2.84406" ry="2.80971" fill="#D9D9D9"/>
<ellipse cx="107.889" cy="2.86293" rx="2.84406" ry="2.80971" fill="#D9D9D9"/>
<ellipse cx="107.889" cy="11.5731" rx="2.84406" ry="2.80971" fill="#D9D9D9"/>
<ellipse cx="60.3919" cy="20.2831" rx="2.84406" ry="2.80971" fill="#D9D9D9"/>
<ellipse cx="70.0628" cy="20.2829" rx="2.84406" ry="2.80971" fill="#D9D9D9"/>
<ellipse cx="60.3919" cy="28.9934" rx="2.84406" ry="2.80971" fill="#D9D9D9"/>
<ellipse cx="70.0628" cy="28.9934" rx="2.84406" ry="2.80971" fill="#D9D9D9"/>
<ellipse cx="79.4495" cy="20.2831" rx="2.84406" ry="2.80971" fill="#D9D9D9"/>
<ellipse cx="79.4495" cy="28.9934" rx="2.84406" ry="2.80971" fill="#D9D9D9"/>
<ellipse cx="88.8343" cy="20.2831" rx="2.84406" ry="2.80971" fill="#D9D9D9"/>
<ellipse cx="98.5032" cy="20.2831" rx="2.84406" ry="2.80971" fill="#D9D9D9"/>
<ellipse cx="88.8343" cy="28.9934" rx="2.84406" ry="2.80971" fill="#D9D9D9"/>
<ellipse cx="98.5052" cy="28.9934" rx="2.84406" ry="2.80971" fill="#D9D9D9"/>
<ellipse cx="107.889" cy="20.2831" rx="2.84406" ry="2.80971" fill="#D9D9D9"/>
<ellipse cx="107.889" cy="28.9934" rx="2.84406" ry="2.80971" fill="#D9D9D9"/>
<ellipse cx="117.382" cy="37.7034" rx="2.84406" ry="2.80971" fill="#D9D9D9"/>
<ellipse cx="127.053" cy="37.7033" rx="2.84406" ry="2.80971" fill="#D9D9D9"/>
<ellipse cx="117.382" cy="46.4137" rx="2.84406" ry="2.80971" fill="#D9D9D9"/>
<ellipse cx="127.053" cy="46.4137" rx="2.84406" ry="2.80971" fill="#D9D9D9"/>
<ellipse cx="136.438" cy="37.7034" rx="2.84406" ry="2.80971" fill="#D9D9D9"/>
<ellipse cx="136.438" cy="46.4137" rx="2.84406" ry="2.80971" fill="#D9D9D9"/>
<ellipse cx="145.824" cy="37.7034" rx="2.84406" ry="2.80971" fill="#D9D9D9"/>
<ellipse cx="155.492" cy="37.7034" rx="2.84406" ry="2.80971" fill="#D9D9D9"/>
<ellipse cx="145.824" cy="46.4137" rx="2.84406" ry="2.80971" fill="#D9D9D9"/>
<ellipse cx="155.492" cy="46.4137" rx="2.84406" ry="2.80971" fill="#D9D9D9"/>
<ellipse cx="164.878" cy="37.7034" rx="2.84406" ry="2.80971" fill="#D9D9D9"/>
<ellipse cx="164.878" cy="46.4137" rx="2.84406" ry="2.80971" fill="#D9D9D9"/>
<ellipse cx="117.382" cy="55.1233" rx="2.84406" ry="2.80971" fill="#D9D9D9"/>
<ellipse cx="127.053" cy="55.1237" rx="2.84406" ry="2.80971" fill="#D9D9D9"/>
<ellipse cx="117.382" cy="63.8335" rx="2.84406" ry="2.80971" fill="#D9D9D9"/>
<ellipse cx="127.053" cy="63.8335" rx="2.84406" ry="2.80971" fill="#D9D9D9"/>
<ellipse cx="136.438" cy="55.1233" rx="2.84406" ry="2.80971" fill="#D9D9D9"/>
<ellipse cx="136.438" cy="63.8335" rx="2.84406" ry="2.80971" fill="#D9D9D9"/>
<ellipse cx="145.824" cy="55.1233" rx="2.84406" ry="2.80971" fill="#D9D9D9"/>
<ellipse cx="155.492" cy="55.1237" rx="2.84406" ry="2.80971" fill="#D9D9D9"/>
<ellipse cx="145.824" cy="63.8335" rx="2.84406" ry="2.80971" fill="#D9D9D9"/>
<ellipse cx="155.492" cy="63.8335" rx="2.84406" ry="2.80971" fill="#D9D9D9"/>
<ellipse cx="164.878" cy="55.1233" rx="2.84406" ry="2.80971" fill="#D9D9D9"/>
<ellipse cx="164.878" cy="63.8338" rx="2.84406" ry="2.80971" fill="#D9D9D9"/>
<ellipse cx="117.382" cy="2.86354" rx="2.84406" ry="2.80971" fill="#D9D9D9"/>
<ellipse cx="127.053" cy="2.86293" rx="2.84406" ry="2.80971" fill="#D9D9D9"/>
<ellipse cx="117.382" cy="11.5731" rx="2.84406" ry="2.80971" fill="#D9D9D9"/>
<ellipse cx="127.053" cy="11.5731" rx="2.84406" ry="2.80971" fill="#D9D9D9"/>
<ellipse cx="136.438" cy="2.86293" rx="2.84406" ry="2.80971" fill="#D9D9D9"/>
<ellipse cx="136.438" cy="11.5731" rx="2.84406" ry="2.80971" fill="#D9D9D9"/>
<ellipse cx="145.824" cy="2.86293" rx="2.84406" ry="2.80971" fill="#D9D9D9"/>
<ellipse cx="155.492" cy="2.86293" rx="2.84406" ry="2.80971" fill="#D9D9D9"/>
<ellipse cx="145.824" cy="11.5731" rx="2.84406" ry="2.80971" fill="#D9D9D9"/>
<ellipse cx="155.492" cy="11.5731" rx="2.84406" ry="2.80971" fill="#D9D9D9"/>
<ellipse cx="164.878" cy="2.86293" rx="2.84406" ry="2.80971" fill="#D9D9D9"/>
<ellipse cx="164.878" cy="11.5731" rx="2.84406" ry="2.80971" fill="#D9D9D9"/>
<ellipse cx="117.382" cy="20.2829" rx="2.84406" ry="2.80971" fill="#D9D9D9"/>
<ellipse cx="127.053" cy="20.2831" rx="2.84406" ry="2.80971" fill="#D9D9D9"/>
<ellipse cx="117.382" cy="28.9934" rx="2.84406" ry="2.80971" fill="#D9D9D9"/>
<ellipse cx="127.053" cy="28.9932" rx="2.84406" ry="2.80971" fill="#D9D9D9"/>
<ellipse cx="136.438" cy="20.2831" rx="2.84406" ry="2.80971" fill="#D9D9D9"/>
<ellipse cx="136.438" cy="28.9934" rx="2.84406" ry="2.80971" fill="#D9D9D9"/>
<ellipse cx="145.822" cy="20.2831" rx="2.84406" ry="2.80971" fill="#D9D9D9"/>
<ellipse cx="155.492" cy="20.2831" rx="2.84406" ry="2.80971" fill="#D9D9D9"/>
<ellipse cx="145.824" cy="28.9934" rx="2.84406" ry="2.80971" fill="#D9D9D9"/>
<ellipse cx="155.492" cy="28.9932" rx="2.84406" ry="2.80971" fill="#D9D9D9"/>
<ellipse cx="164.878" cy="20.2829" rx="2.84406" ry="2.80971" fill="#D9D9D9"/>
<ellipse cx="164.878" cy="28.9934" rx="2.84406" ry="2.80971" fill="#D9D9D9"/>
<ellipse cx="174.262" cy="37.7033" rx="2.84406" ry="2.80971" fill="#D9D9D9"/>
<ellipse cx="183.933" cy="37.7034" rx="2.84406" ry="2.80971" fill="#D9D9D9"/>
<ellipse cx="174.262" cy="46.4133" rx="2.84406" ry="2.80971" fill="#D9D9D9"/>
<ellipse cx="183.933" cy="46.4133" rx="2.84406" ry="2.80971" fill="#D9D9D9"/>
<ellipse cx="193.32" cy="37.7034" rx="2.84406" ry="2.80971" fill="#D9D9D9"/>
<ellipse cx="193.32" cy="46.4137" rx="2.84406" ry="2.80971" fill="#D9D9D9"/>
<ellipse cx="202.704" cy="37.7033" rx="2.84406" ry="2.80971" fill="#D9D9D9"/>
<ellipse cx="212.375" cy="37.7034" rx="2.84406" ry="2.80971" fill="#D9D9D9"/>
<ellipse cx="202.704" cy="46.4133" rx="2.84406" ry="2.80971" fill="#D9D9D9"/>
<ellipse cx="212.375" cy="46.4133" rx="2.84406" ry="2.80971" fill="#D9D9D9"/>
<ellipse cx="221.759" cy="37.7034" rx="2.84406" ry="2.80971" fill="#D9D9D9"/>
<ellipse cx="221.759" cy="46.4137" rx="2.84406" ry="2.80971" fill="#D9D9D9"/>
<ellipse cx="174.262" cy="55.1233" rx="2.84406" ry="2.80971" fill="#D9D9D9"/>
<ellipse cx="183.933" cy="55.1237" rx="2.84406" ry="2.80971" fill="#D9D9D9"/>
<ellipse cx="174.262" cy="63.8338" rx="2.84406" ry="2.80971" fill="#D9D9D9"/>
<ellipse cx="183.933" cy="63.8335" rx="2.84406" ry="2.80971" fill="#D9D9D9"/>
<ellipse cx="193.32" cy="55.1233" rx="2.84406" ry="2.80971" fill="#D9D9D9"/>
<ellipse cx="193.32" cy="63.8338" rx="2.84406" ry="2.80971" fill="#D9D9D9"/>
<ellipse cx="202.704" cy="55.1233" rx="2.84406" ry="2.80971" fill="#D9D9D9"/>
<ellipse cx="212.375" cy="55.1233" rx="2.84406" ry="2.80971" fill="#D9D9D9"/>
<ellipse cx="202.704" cy="63.8338" rx="2.84406" ry="2.80971" fill="#D9D9D9"/>
<ellipse cx="212.373" cy="63.8338" rx="2.84406" ry="2.80971" fill="#D9D9D9"/>
<ellipse cx="221.759" cy="55.1233" rx="2.84406" ry="2.80971" fill="#D9D9D9"/>
<ellipse cx="221.759" cy="63.8338" rx="2.84406" ry="2.80971" fill="#D9D9D9"/>
<ellipse cx="174.262" cy="2.86281" rx="2.84406" ry="2.80971" fill="#D9D9D9"/>
<ellipse cx="183.933" cy="2.86293" rx="2.84406" ry="2.80971" fill="#D9D9D9"/>
<ellipse cx="174.262" cy="11.5728" rx="2.84406" ry="2.80971" fill="#D9D9D9"/>
<ellipse cx="183.933" cy="11.5731" rx="2.84406" ry="2.80971" fill="#D9D9D9"/>
<ellipse cx="193.32" cy="2.86293" rx="2.84406" ry="2.80971" fill="#D9D9D9"/>
<ellipse cx="193.32" cy="11.5731" rx="2.84406" ry="2.80971" fill="#D9D9D9"/>
<ellipse cx="202.704" cy="2.86293" rx="2.84406" ry="2.80971" fill="#D9D9D9"/>
<ellipse cx="212.375" cy="2.86293" rx="2.84406" ry="2.80971" fill="#D9D9D9"/>
<ellipse cx="202.704" cy="11.5731" rx="2.84406" ry="2.80971" fill="#D9D9D9"/>
<ellipse cx="212.375" cy="11.5728" rx="2.84406" ry="2.80971" fill="#D9D9D9"/>
<ellipse cx="221.759" cy="2.86293" rx="2.84406" ry="2.80971" fill="#D9D9D9"/>
<ellipse cx="221.759" cy="11.5731" rx="2.84406" ry="2.80971" fill="#D9D9D9"/>
<ellipse cx="174.262" cy="20.2831" rx="2.84406" ry="2.80971" fill="#D9D9D9"/>
<ellipse cx="183.933" cy="20.2829" rx="2.84406" ry="2.80971" fill="#D9D9D9"/>
<ellipse cx="174.262" cy="28.9934" rx="2.84406" ry="2.80971" fill="#D9D9D9"/>
<ellipse cx="183.933" cy="28.9934" rx="2.84406" ry="2.80971" fill="#D9D9D9"/>
<ellipse cx="193.32" cy="20.2831" rx="2.84406" ry="2.80971" fill="#D9D9D9"/>
<ellipse cx="193.32" cy="28.9934" rx="2.84406" ry="2.80971" fill="#D9D9D9"/>
<ellipse cx="202.704" cy="20.2831" rx="2.84406" ry="2.80971" fill="#D9D9D9"/>
<ellipse cx="212.373" cy="20.2831" rx="2.84406" ry="2.80971" fill="#D9D9D9"/>
<ellipse cx="202.704" cy="28.9934" rx="2.84406" ry="2.80971" fill="#D9D9D9"/>
<ellipse cx="212.375" cy="28.9934" rx="2.84406" ry="2.80971" fill="#D9D9D9"/>
<ellipse cx="221.759" cy="20.2831" rx="2.84406" ry="2.80971" fill="#D9D9D9"/>
<ellipse cx="221.759" cy="28.9934" rx="2.84406" ry="2.80971" fill="#D9D9D9"/>
</svg>
