<?xml version="1.0" encoding="UTF-8" standalone="no"?>
<svg
   xmlns:dc="http://purl.org/dc/elements/1.1/"
   xmlns:cc="http://creativecommons.org/ns#"
   xmlns:rdf="http://www.w3.org/1999/02/22-rdf-syntax-ns#"
   xmlns:svg="http://www.w3.org/2000/svg"
   xmlns="http://www.w3.org/2000/svg"
   viewBox="0 0 515.59998 163.62666"
   height="163.62666"
   width="515.59998"
   xml:space="preserve"
   id="svg2"
   version="1.1"><metadata
     id="metadata8"><rdf:RDF><cc:Work
         rdf:about=""><dc:format>image/svg+xml</dc:format><dc:type
           rdf:resource="http://purl.org/dc/dcmitype/StillImage" /></cc:Work></rdf:RDF></metadata><defs
     id="defs6" /><g
     transform="matrix(1.3333333,0,0,-1.3333333,0,163.62667)"
     id="g10"><g
       transform="scale(0.1)"
       id="g12"><path
         id="path14"
         style="fill:#171717;fill-opacity:1;fill-rule:nonzero;stroke:none"
         d="m 1935.91,1227.19 c 212.66,0 385.04,-172.39 385.04,-385.042 0,-212.644 -172.38,-385.031 -385.04,-385.031 -212.65,0 -385.03,172.387 -385.03,385.031 0,212.652 172.38,385.042 385.03,385.042" /><path
         id="path16"
         style="fill:#ffffff;fill-opacity:1;fill-rule:nonzero;stroke:none"
         d="m 1817.24,859.457 c 6.61,1.672 10.17,2.582 10.17,3.926 0,1.347 -6.22,7.133 -6.65,7.488 -0.43,0.352 0.62,1.527 1.27,1.188 3.13,-1.661 8.91,-4.161 11.81,-2.258 2.89,1.894 1.72,8.16 1.54,9.156 -0.08,0.434 1.46,1.02 1.74,0.348 0.27,-0.664 3.92,-10.453 6.89,-13.262 2.97,-2.816 9.9,-2.34 11.65,0.906 1.75,3.242 -2.7,10.578 -4.44,12.321 -0.39,0.394 0.52,1.546 0.92,1.343 0.39,-0.195 3.69,-2.554 5.51,-5.379 1.82,-2.8 5.22,-9.75 8.15,-11.41 2.93,-1.668 10.94,-4.09 12.19,-1.984 1.27,2.094 -3.36,8.519 -3.64,8.828 -0.27,0.324 0.82,1.664 1.24,1.352 7.12,-5.422 14.09,-17.004 14.09,-23.586 0,-6.114 -11.33,-14.707 -31.33,-23.825 -0.76,-0.343 -1.53,-0.687 -2.31,-1.043 -3.27,-1.703 -1.59,-3.011 10.42,-11.043 0.47,-0.304 0.85,-0.425 1.43,-0.425 0.58,0 16.11,0 16.11,0 0,0 0,-39.336 0,-40.078 0,-0.434 -0.24,-0.836 -0.78,-0.645 -5.68,1.918 -9.47,7.621 -9.47,7.621 0,0 -1.79,-7.543 -7,-9.027 -5.23,-1.5 -11.47,6.976 -19.41,20.254 0,0 -9.17,-2.621 -22.92,-8.516 -0.64,-0.285 -1.24,-0.051 -1.51,0.352 -0.29,0.406 -4.61,6.566 -4.87,6.921 -0.93,1.329 -0.75,3.262 0.56,4.504 16.19,15.313 22.69,23.188 25.11,26.5 0.73,0.977 -0.02,1.157 -1.72,1.207 -7.92,0.282 -12.6,-1.238 -18.4,-7.902 -0.37,-0.426 -2.23,0.137 -1.83,1.121 2.07,5.16 2.39,5.453 2.08,6.574 -0.33,1.11 -1.49,2.789 -5.39,2.848 -0.81,0.008 -0.92,2.023 -0.16,2.129 4.49,0.562 7.3,1.727 7.98,3.23 0.48,1.036 0.28,4.567 0.31,5.188 0.04,0.867 1.7,1.133 1.96,0.391 0.26,-0.735 1.88,-4.973 3.58,-5.633 1.7,-0.653 9.5,-2.969 11.38,-2.567 1.87,0.395 2.27,1.993 2.1,3.047 -0.56,3.199 -1.65,5.899 -3.2,6.891 -1.55,0.98 -9.04,5.726 -9.44,6.074 -0.39,0.352 0.15,1.613 0.67,1.516 0.51,-0.129 7.9,-2.453 8.7,-2.582 0.79,-0.11 1.73,0.523 2.01,1.281 0.28,0.746 1.49,5.496 1.69,6.125 0.19,0.641 1.75,0.523 1.82,-0.156 0.09,-0.672 -0.21,-6.801 0.01,-7.559 0.24,-0.75 1.82,-7.094 3.84,-9.144 2.01,-2.059 3.13,-2.262 6.41,-0.918 3.29,1.347 19.06,10.367 23.33,15.277 1.07,1.226 2.25,4.812 -4.75,7.418 -6.11,2.269 -35.93,11.687 -54.42,-9.715 -0.33,-0.387 -1.79,0.293 -1.51,0.832 3.69,6.856 4.09,8 3.53,9.52 -0.56,1.503 -1.48,2.898 -6.97,3.32 -0.52,0.043 -0.71,1.512 -0.08,1.66 z m 81.87,0 c 6.61,1.672 10.19,2.582 10.19,3.926 0,1.347 -6.22,7.133 -6.66,7.488 -0.44,0.352 0.62,1.527 1.27,1.188 3.12,-1.661 8.9,-4.161 11.8,-2.258 2.89,1.894 1.72,8.16 1.55,9.156 -0.08,0.434 1.45,1.02 1.74,0.348 0.27,-0.664 3.92,-10.453 6.89,-13.262 2.97,-2.816 9.89,-2.34 11.64,0.906 1.74,3.242 -2.68,10.578 -4.43,12.321 -0.4,0.394 0.52,1.546 0.92,1.343 0.39,-0.195 3.69,-2.554 5.5,-5.379 1.83,-2.8 5.22,-9.75 8.15,-11.41 2.94,-1.668 10.94,-4.09 12.2,-1.984 1.26,2.094 -3.36,8.519 -3.64,8.828 -0.28,0.324 0.81,1.664 1.22,1.352 7.13,-5.422 14.1,-17.004 14.1,-23.586 0,-6.114 -11.34,-14.707 -31.33,-23.825 -0.75,-0.343 -1.53,-0.687 -2.32,-1.043 -3.26,-1.703 -1.58,-3.011 10.43,-11.043 0.47,-0.304 0.85,-0.425 1.43,-0.425 0.58,0 16.12,0 16.12,0 0,0 0,-39.336 0,-40.078 0,-0.434 -0.24,-0.836 -0.78,-0.645 -5.67,1.918 -9.47,7.621 -9.47,7.621 0,0 -1.8,-7.543 -7.01,-9.027 -5.22,-1.5 -11.47,6.976 -19.4,20.254 0,0 -9.18,-2.621 -22.92,-8.516 -0.64,-0.285 -1.24,-0.051 -1.52,0.352 -0.29,0.406 -4.61,6.566 -4.86,6.921 -0.94,1.329 -0.76,3.262 0.55,4.504 16.19,15.313 22.7,23.188 25.12,26.5 0.72,0.977 -0.02,1.157 -1.72,1.207 -7.92,0.282 -12.61,-1.238 -18.41,-7.902 -0.37,-0.426 -2.23,0.137 -1.82,1.121 2.05,5.16 2.39,5.453 2.08,6.574 -0.33,1.11 -1.5,2.789 -5.4,2.848 -0.81,0.008 -0.92,2.023 -0.15,2.129 4.48,0.562 7.29,1.727 7.98,3.23 0.48,1.036 0.27,4.567 0.3,5.188 0.04,0.867 1.71,1.133 1.96,0.391 0.27,-0.735 1.89,-4.973 3.59,-5.633 1.7,-0.653 9.5,-2.969 11.37,-2.567 1.88,0.395 2.27,1.993 2.1,3.047 -0.55,3.199 -1.65,5.899 -3.2,6.891 -1.53,0.98 -9.04,5.726 -9.44,6.074 -0.39,0.352 0.15,1.613 0.67,1.516 0.52,-0.129 7.91,-2.453 8.7,-2.582 0.79,-0.11 1.73,0.523 2.01,1.281 0.29,0.746 1.5,5.496 1.7,6.125 0.19,0.641 1.74,0.523 1.82,-0.156 0.08,-0.672 -0.22,-6.801 0.01,-7.559 0.24,-0.75 1.81,-7.094 3.84,-9.144 2.02,-2.059 3.13,-2.262 6.4,-0.918 3.29,1.347 19.06,10.367 23.34,15.277 1.07,1.226 2.24,4.812 -4.75,7.418 -6.11,2.269 -35.93,11.687 -54.43,-9.715 -0.33,-0.387 -1.78,0.293 -1.5,0.832 3.68,6.856 4.08,8 3.52,9.52 -0.55,1.503 -1.48,2.898 -6.97,3.32 -0.52,0.043 -0.7,1.512 -0.08,1.66 z m 81.88,0 c 6.61,1.672 10.18,2.582 10.18,3.926 0,1.347 -6.23,7.133 -6.66,7.488 -0.43,0.352 0.63,1.527 1.26,1.188 3.14,-1.661 8.92,-4.161 11.82,-2.258 2.89,1.894 1.72,8.16 1.53,9.156 -0.07,0.434 1.47,1.02 1.76,0.348 0.25,-0.664 3.92,-10.453 6.89,-13.262 2.97,-2.816 9.9,-2.34 11.64,0.906 1.75,3.242 -2.7,10.578 -4.43,12.321 -0.41,0.394 0.51,1.546 0.9,1.343 0.39,-0.195 3.7,-2.554 5.51,-5.379 1.83,-2.8 5.22,-9.75 8.16,-11.41 2.92,-1.668 10.94,-4.09 12.2,-1.984 1.27,2.094 -3.37,8.519 -3.64,8.828 -0.29,0.324 0.81,1.664 1.22,1.352 7.13,-5.422 14.1,-17.004 14.1,-23.586 0,-6.114 -11.33,-14.707 -31.33,-23.825 -0.76,-0.343 -1.53,-0.687 -2.31,-1.043 -3.27,-1.703 -1.59,-3.011 10.43,-11.043 0.46,-0.304 0.84,-0.425 1.41,-0.425 0.59,0 16.13,0 16.13,0 0,0 0,-39.336 0,-40.078 0,-0.434 -0.25,-0.836 -0.79,-0.645 -5.68,1.918 -9.47,7.621 -9.47,7.621 0,0 -1.79,-7.543 -7.01,-9.027 -5.21,-1.5 -11.45,6.976 -19.39,20.254 0,0 -9.18,-2.621 -22.93,-8.516 -0.65,-0.285 -1.24,-0.051 -1.52,0.352 -0.27,0.406 -4.61,6.566 -4.85,6.921 -0.94,1.329 -0.76,3.262 0.55,4.504 16.19,15.313 22.69,23.188 25.1,26.5 0.73,0.977 -0.02,1.157 -1.72,1.207 -7.92,0.282 -12.58,-1.238 -18.4,-7.902 -0.36,-0.426 -2.22,0.137 -1.82,1.121 2.06,5.16 2.38,5.453 2.08,6.574 -0.32,1.11 -1.49,2.789 -5.39,2.848 -0.82,0.008 -0.93,2.023 -0.16,2.129 4.5,0.562 7.3,1.727 7.98,3.23 0.48,1.036 0.28,4.567 0.3,5.188 0.04,0.867 1.71,1.133 1.98,0.391 0.24,-0.735 1.86,-4.973 3.57,-5.633 1.7,-0.653 9.5,-2.969 11.37,-2.567 1.88,0.395 2.27,1.993 2.1,3.047 -0.56,3.199 -1.64,5.899 -3.19,6.891 -1.54,0.98 -9.05,5.726 -9.45,6.074 -0.39,0.352 0.17,1.613 0.68,1.516 0.51,-0.129 7.9,-2.453 8.69,-2.582 0.8,-0.11 1.73,0.523 2.02,1.281 0.28,0.746 1.48,5.496 1.69,6.125 0.2,0.641 1.75,0.523 1.81,-0.156 0.08,-0.672 -0.22,-6.801 0.02,-7.559 0.24,-0.75 1.81,-7.094 3.83,-9.144 2.03,-2.059 3.13,-2.262 6.43,-0.918 3.28,1.347 19.04,10.367 23.32,15.277 1.06,1.226 2.26,4.812 -4.75,7.418 -6.1,2.269 -35.93,11.687 -54.42,-9.715 -0.33,-0.387 -1.8,0.293 -1.51,0.832 3.69,6.856 4.1,8 3.54,9.52 -0.58,1.503 -1.49,2.898 -6.99,3.32 -0.51,0.043 -0.71,1.512 -0.07,1.66 z M 1793.57,712.371 h 280.47 V 926.844 H 1793.57 V 712.371" /><path
         id="path18"
         style="fill:#ffffff;fill-opacity:1;fill-rule:nonzero;stroke:none"
         d="m 1845.92,810.641 c -1.87,-0.414 -3.1,-2.028 -2.74,-3.61 0.34,-1.59 2.13,-2.527 4,-2.14 1.86,0.418 3.09,2.031 2.74,3.621 -0.35,1.59 -2.14,2.535 -4,2.129" /><path
         id="path20"
         style="fill:#ffffff;fill-opacity:1;fill-rule:nonzero;stroke:none"
         d="m 1927.8,810.641 c -1.87,-0.414 -3.1,-2.028 -2.75,-3.61 0.35,-1.59 2.13,-2.527 4,-2.14 1.86,0.418 3.1,2.031 2.75,3.621 -0.35,1.59 -2.14,2.535 -4,2.129" /><path
         id="path22"
         style="fill:#ffffff;fill-opacity:1;fill-rule:nonzero;stroke:none"
         d="m 2009.67,810.641 c -1.87,-0.414 -3.09,-2.028 -2.74,-3.61 0.35,-1.59 2.12,-2.527 3.99,-2.14 1.88,0.418 3.1,2.031 2.74,3.621 -0.34,1.59 -2.13,2.535 -3.99,2.129" /><path
         id="path24"
         style="fill:#ffffff;fill-opacity:1;fill-rule:nonzero;stroke:none"
         d="m 2074.04,950.172 -140.06,61.228 -140.41,-61.416 v -10.613 h 280.47 v 10.801" /><path
         id="path26"
         style="fill:#ffffff;fill-opacity:1;fill-rule:nonzero;stroke:none"
         d="m 2167.82,981.598 c 6.81,0 12.33,5.519 12.33,12.324 0,6.808 -5.52,12.328 -12.33,12.328 -6.8,0 -12.32,-5.52 -12.32,-12.328 0,-6.805 5.52,-12.324 12.32,-12.324" /><path
         id="path28"
         style="fill:#ffffff;fill-opacity:1;fill-rule:nonzero;stroke:none"
         d="m 1701.25,981.656 c 6.8,0 12.32,5.52 12.32,12.324 0,6.8 -5.52,12.32 -12.32,12.32 -6.81,0 -12.33,-5.52 -12.33,-12.32 0,-6.804 5.52,-12.324 12.33,-12.324" /><path
         id="path30"
         style="fill:#ffffff;fill-opacity:1;fill-rule:nonzero;stroke:none"
         d="m 1655.51,859.578 13.68,-2.367 c 6.32,-1.09 18.08,-3.113 21.29,-5.234 1.23,-0.715 1.96,-2.938 1.9,-5.664 l -0.07,-2.739 c 0.12,-0.297 2.14,-1.133 2.14,-1.133 l 1.34,0.618 c 0.1,0.257 0.99,12.011 0.99,12.011 l 1.67,12.649 c -0.04,0.261 -1.47,1.316 -1.47,1.316 l -1.84,-0.195 c -0.2,-0.289 -0.71,-3.035 -0.71,-3.035 -0.51,-2.664 -1.45,-4.383 -2.67,-4.86 -1.72,-0.64 -7.09,-0.843 -22.79,1.871 l -12.74,2.207 c -13.26,2.293 -28.41,8.809 -25.31,26.778 1.15,6.59 3.75,11.238 7.97,14.211 5.48,3.863 13.67,4.781 25.04,2.812 l 23.95,-4.144 c 11.51,-2 12.74,-2.422 11.88,-8.649 l -0.39,-2.699 c 0.2,-0.676 0.71,-0.996 1.43,-1.102 0.71,-0.105 1.61,0.012 2.02,0.52 0.09,0.195 2.85,13.941 2.85,13.941 l 3.44,13.747 c -0.15,0.816 -0.85,1.207 -1.46,1.371 -0.78,0.218 -1.47,0.121 -1.85,-0.274 -0.1,-0.176 -0.95,-2.922 -0.95,-2.922 -1.86,-5.933 -3.47,-6.023 -15.25,-3.988 l -26.17,4.531 c -13.27,2.305 -21.91,1 -28.02,-4.215 -4.95,-4.089 -8.26,-10.796 -9.83,-19.929 -1.5,-8.614 0.23,-17.403 4.51,-22.926 4.75,-6.277 13.06,-10.375 25.42,-12.508" /><path
         id="path32"
         style="fill:#ffffff;fill-opacity:1;fill-rule:nonzero;stroke:none"
         d="m 1708.11,746.367 c 0.67,-0.14 2.14,-1.586 4.03,-5.199 l 0.73,-1.445 c 0.77,-0.516 1.6,-0.532 2.3,-0.215 0.6,0.262 0.99,0.711 1.12,1.246 -0.02,0.266 -4.16,11.273 -4.16,11.273 l -4.07,12.786 c -0.43,0.605 -1.09,0.82 -1.83,0.714 -0.81,-0.121 -1.49,-0.586 -1.74,-1.183 -0.02,-0.258 0.39,-2.141 0.39,-2.141 0.86,-4.012 0.94,-6.066 0.25,-6.898 -1.65,-1.922 -9.27,-4.778 -21.47,-8.035 l -23.25,-6.247 c -1.99,-0.527 -3.86,-1.027 -4.39,-0.804 0.37,-0.024 14.98,22.769 14.98,22.769 l 9.03,13.739 1.34,1.996 c 3.93,5.882 13.15,19.683 17.67,22.863 0,0.008 0.01,0.027 0.01,0.043 0.07,0.73 -1.25,5.293 -1.25,5.293 -0.01,0.043 -2.34,12.273 -2.34,12.273 -0.42,0.606 -0.95,0.809 -1.59,0.762 -0.82,-0.059 -1.66,-0.508 -2.03,-1.098 -0.07,-0.269 0.12,-2.168 0.12,-2.168 0.19,-2.132 0.14,-5.121 -1.13,-7.121 -1.91,-2.73 -3.99,-3.433 -7.19,-4.281 l -31.69,-8.391 -1.74,-0.468 c -5.84,-1.594 -16.72,-4.563 -20.53,-4.141 -1.1,0.184 -2.15,1.59 -2.86,3.871 -0.01,0.016 -0.95,2.84 -0.95,2.84 -0.19,0.234 -2.02,0.34 -2.02,0.34 l -1.52,-1.246 c -0.02,-0.285 2.68,-11.41 2.68,-11.41 l 2.34,-12.727 c 0.14,-0.254 1.64,-0.691 1.64,-0.691 l 1.94,0.988 c 0.01,0.023 0.01,0.047 0.01,0.07 0.06,0.578 -0.28,3.699 -0.28,3.699 -0.16,1.211 -0.19,2.274 -0.11,3.168 0.12,1.168 0.42,2.039 0.93,2.543 3.19,2.789 19.99,7.352 21.89,7.864 l 23.69,6.351 c 2.38,0.641 4.83,1.196 6.43,1.25 -0.63,-0.918 -10.93,-16 -10.93,-16 l -21.93,-32.91 c -8.57,-12.851 -11.26,-16.59 -12.66,-18.266 0.25,-1.625 1.05,-2.402 2.06,-2.46 1.93,0.71 8.16,2.503 18.7,5.332 l 27.53,7.386 c 5.31,1.438 17.76,4.813 21.85,4.086" /><path
         id="path34"
         style="fill:#ffffff;fill-opacity:1;fill-rule:nonzero;stroke:none"
         d="m 1746.09,692.02 c 0.52,0.41 1.11,1.113 1.03,1.753 -0.09,0.204 -8.24,11.508 -8.24,11.508 l -7.72,11.879 c -0.71,0.473 -1.56,0.199 -2.15,-0.16 -0.34,-0.199 -1.11,-0.738 -1.1,-1.477 0.06,-0.207 1.46,-2.66 1.46,-2.66 3.08,-5.429 1.94,-6.5 -7.88,-13.222 l -33.06,-22.621 c -9.73,-6.672 -10.94,-7.239 -15.1,-2.497 l -1.86,2.137 c -0.99,0.281 -1.78,-0.164 -2.26,-0.64 -0.51,-0.481 -0.76,-1.024 -0.69,-1.477 0.08,-0.203 8.36,-11.703 8.36,-11.703 l 7.59,-11.688 c 0.72,-0.461 1.56,-0.183 2.16,0.172 0.34,0.196 1.1,0.739 1.09,1.473 -0.05,0.187 -1.36,2.699 -1.36,2.699 -2.92,5.602 -1.95,6.52 7.77,13.172 l 33.07,22.633 c 9.82,6.726 11.22,7.406 15.17,2.562 l 1.78,-2.195 c 0.85,-0.402 1.63,0.105 1.94,0.352" /><path
         id="path36"
         style="fill:#ffffff;fill-opacity:1;fill-rule:nonzero;stroke:none"
         d="m 1824.65,627.84 c 0.29,0.582 0.35,1.129 0.15,1.543 -0.17,0.187 -9.22,5.887 -9.22,5.887 l -9.27,6.679 c -0.83,0.133 -1.52,-0.211 -2.03,-0.808 -0.36,-0.434 -0.57,-0.899 -0.6,-1.356 -0.01,-0.152 0,-0.308 0.04,-0.461 0.14,-0.23 1.64,-1.527 1.64,-1.527 2.18,-1.875 2.88,-3.102 2.85,-3.68 -0.01,-0.109 -0.05,-0.187 -0.09,-0.265 l -3.4,-2.93 -23.54,-13.492 c 0,0 -19.43,-11.012 -23.52,-13.325 0.49,1.868 10.3,39.668 10.3,39.668 2.41,8.934 4.58,15.028 5.08,16.063 0.3,0.273 1.18,0.371 4.73,-1.934 l 1.44,-0.902 c 0.83,-0.055 1.39,0.293 1.8,0.902 0.43,0.649 0.57,1.422 0.35,1.993 -0.14,0.191 -10.83,8.757 -10.83,8.757 l -8.77,7.856 c -0.85,0.191 -1.5,-0.07 -1.98,-0.574 -0.52,-0.551 -0.75,-1.258 -0.62,-1.918 0.11,-0.219 1.54,-1.7 1.54,-1.7 3.2,-3.402 3.15,-6.179 1.38,-12.828 l -13.87,-51.547 c -1.24,-4.984 -3.01,-10.449 -4.88,-15 0.03,-0.39 1.28,-1.804 1.28,-1.804 0.01,-0.008 1.42,-0.559 1.42,-0.559 5.55,3.781 17.87,11.11 27.29,16.438 l 13.2,7.363 c 11.6,6.469 21.3,11.289 26.51,13.648 2.7,1.161 4.72,1.168 6.76,0.032 l 2.88,-1.661 c 0.99,0.075 1.65,0.813 1.98,1.442" /><path
         id="path38"
         style="fill:#ffffff;fill-opacity:1;fill-rule:nonzero;stroke:none"
         d="m 1894.1,606.625 c -1.33,0.074 -7.69,2.039 -14.41,4.117 -0.09,0.031 -20.31,6.289 -20.31,6.289 l -12.57,4.246 c -0.85,-0.078 -1.34,-0.828 -1.59,-1.476 -0.13,-0.352 -0.39,-1.258 0.06,-1.824 0.16,-0.122 1.82,-0.875 1.82,-0.875 5.76,-2.563 5.58,-3.875 2.13,-15.039 l -11.99,-38.708 c -3.5,-11.308 -4.46,-12.343 -10.32,-11.074 l -3.64,0.778 c -0.96,-0.391 -1.3,-1.231 -1.39,-1.907 -0.1,-0.687 0.04,-1.273 0.37,-1.586 0.19,-0.101 14.9,-4.304 14.9,-4.304 l 9.67,-2.985 28.7,-9.261 c 2.81,2.644 8.06,10.117 9.98,13.656 -0.02,0.883 -0.42,1.476 -1.04,1.871 -0.62,0.402 -1.35,0.531 -1.92,0.348 -4.34,-4.465 -8.52,-7.575 -10.82,-8.059 -2.73,-0.453 -6.15,0.188 -14.05,2.633 -9.55,2.969 -11.19,4.805 -11.97,6.289 -1.08,2.191 -0.29,5.875 1.44,11.473 l 4.69,15.164 c 0.76,2.453 0.8,2.468 3.91,1.515 l 6.23,-1.937 c 3.91,-1.207 6.61,-2.145 7.99,-3.043 1.89,-1.149 2.02,-2.949 1.89,-4.731 l -0.34,-4.48 c 0.33,-0.887 1.18,-1.281 1.83,-1.418 0.73,-0.156 1.36,-0.039 1.74,0.312 0.12,0.192 1.17,4.207 1.17,4.207 l 1.71,6.426 2.28,6.496 1.51,4.235 c -0.1,0.726 -0.56,1.172 -1.24,1.449 -0.61,0.266 -1.55,0.422 -2.17,0.016 -0.15,-0.165 -2.37,-4.301 -2.37,-4.301 -1.37,-2.508 -2.22,-2.707 -3.38,-2.739 -1.31,-0.023 -4.58,0.735 -9.2,2.161 l -6.23,1.933 c -3.13,0.969 -3.13,0.969 -2.33,3.571 l 6.67,21.5 c 0.61,2.019 0.96,3.128 1.48,3.406 0.4,0.211 1.1,0.043 2.52,-0.391 l 7.73,-2.39 c 4.74,-1.473 8.09,-2.633 10.14,-3.84 4.74,-2.879 4.76,-6.586 4.79,-11.723 v -0.648 c 0.23,-0.641 0.76,-1.008 1.48,-1.196 0.59,-0.144 1.47,-0.179 1.99,0.246 0.15,0.246 0.47,1.715 0.47,1.715 1.04,4.891 2.47,11.59 2.4,13.465 l -0.02,0.387 -0.39,0.031" /><path
         id="path40"
         style="fill:#ffffff;fill-opacity:1;fill-rule:nonzero;stroke:none"
         d="m 1958.29,568.465 c -5.67,-0.559 -7.18,-0.469 -7.46,-0.289 -0.24,0.273 -0.39,1.699 -0.54,3.363 l -2.57,26.258 c -0.12,1.297 -0.12,1.984 0.24,2.41 0.63,0.707 2.58,0.938 6.21,1.113 13.03,0.668 18.65,-6.929 19.21,-14.84 0.43,-6.277 -0.71,-10.878 -4.09,-14.082 -3.05,-2.828 -7.48,-3.582 -11,-3.933 z m 48.61,-30.352 c -2.94,-0.129 -6.01,0.614 -8.17,2.082 -8.57,5.496 -15.93,14.149 -26.15,26.727 -0.78,0.961 -0.79,1.566 -0.54,1.961 3.06,1.523 13.27,7.93 12.05,20.363 -0.9,9.18 -6.55,13.289 -11.11,15.121 -5.03,2.129 -10.85,1.797 -17.21,1.461 l -1.85,-0.101 c -10.17,-0.52 -18.01,-1.207 -24.7,-2.176 -0.64,-0.332 -0.93,-0.903 -0.93,-1.621 -0.02,-0.707 0.26,-1.606 0.9,-2.028 0.21,-0.07 3.81,-0.339 3.81,-0.339 4.1,-0.297 4.69,-1.586 5.73,-12.653 l 3.9,-40.551 c 1.17,-11.996 0.95,-12.621 -4.97,-13.668 l -2.78,-0.488 c -0.73,-0.789 -0.7,-1.687 -0.53,-2.324 0.17,-0.652 0.52,-1.121 0.95,-1.309 0.21,-0.027 14.14,1.028 14.14,1.028 l 13.33,0.359 c 0.78,0.402 0.88,1.25 0.9,1.594 0.04,0.703 -0.12,1.601 -0.7,2.031 -0.22,0.078 -2.61,0.301 -2.61,0.301 -6.24,0.527 -6.52,1.633 -7.69,13.469 l -1.39,14.105 c -0.19,2.031 -0.19,2.031 4.63,2.512 4.35,0.429 6.33,-0.586 8.24,-2.746 l 13.27,-15.379 c 8.97,-9.821 14.73,-12.625 24.91,-11.324 l 4.97,1.23 c 0.49,0.457 0.6,0.996 0.47,1.492 -0.14,0.442 -0.47,0.774 -0.87,0.871" /><path
         id="path42"
         style="fill:#ffffff;fill-opacity:1;fill-rule:nonzero;stroke:none"
         d="m 2055.72,600.242 -10.6,0.336 c -7.39,0.356 -12.4,2.699 -14.86,6.938 -0.8,1.375 -1.85,3.683 -1.93,6.32 -0.09,3.383 1.41,7.328 7.07,10.625 8.83,5.121 14.84,0.961 19.09,-3.246 0.62,-0.27 1.2,-0.152 1.77,0.226 0.6,0.399 1.2,1.09 1.24,1.758 -2.55,4.531 -6.66,9.469 -8.81,11.227 -0.49,0.035 -4.14,-1.317 -4.14,-1.317 -3,-0.695 -6.79,-2.238 -9.88,-4.035 -12.09,-7.019 -16.23,-18.625 -10.27,-28.867 4.79,-8.269 13.83,-10.457 20.57,-10.84 l 12.76,-0.664 c 9.44,-0.445 13.04,-4.473 15.53,-8.773 1.73,-2.969 2.24,-6.289 1.43,-9.336 -0.88,-3.321 -3.27,-6.196 -6.93,-8.324 -10.08,-5.856 -18.95,-0.665 -24.63,4.714 -0.51,0.27 -1.03,0.219 -1.56,-0.082 -0.61,-0.336 -1.27,-1.035 -1.35,-1.836 2.79,-4.539 8.17,-10.949 10.75,-12.515 3.38,-0.059 9.84,0.629 17.7,5.219 6.77,3.918 11.19,9.179 12.79,15.214 0.47,1.789 0.68,3.59 0.63,5.403 -0.1,3.383 -1.1,6.777 -2.99,10.008 -4.43,7.656 -12.08,11.531 -23.38,11.847" /><path
         id="path44"
         style="fill:#ffffff;fill-opacity:1;fill-rule:nonzero;stroke:none"
         d="m 2152.22,619.832 c -0.2,-0.082 -2.5,-1.703 -2.5,-1.703 -5.18,-3.66 -6.08,-2.938 -14.09,5.957 l -26.78,29.793 c -7.96,8.851 -8.81,10.156 -4.54,14.707 l 1.95,2.047 c 0.28,0.902 -0.36,1.621 -0.62,1.89 -0.51,0.489 -1.26,0.946 -1.87,0.774 -0.19,-0.102 -10.33,-9.684 -10.33,-9.684 l -10.75,-9.215 c -0.36,-0.761 0.01,-1.558 0.44,-2.105 0.24,-0.301 0.89,-1.008 1.61,-0.898 0.2,0.082 2.45,1.793 2.45,1.793 4.98,3.769 6.17,2.785 14.14,-6.063 l 26.8,-29.777 c 7.88,-8.778 8.6,-9.899 4.44,-14.653 l -1.86,-2.129 c -0.15,-1.019 0.41,-1.726 0.93,-2.152 0.55,-0.437 1.12,-0.609 1.57,-0.496 0.18,0.105 10.47,9.828 10.47,9.828 l 10.6,9.078 c 0.36,0.778 -0.03,1.571 -0.45,2.114 -0.24,0.3 -0.88,0.996 -1.61,0.894" /><path
         id="path46"
         style="fill:#ffffff;fill-opacity:1;fill-rule:nonzero;stroke:none"
         d="m 2212.36,699.074 c -0.34,0.215 -1.16,0.676 -1.82,0.352 -0.15,-0.153 -2.23,-3.102 -2.23,-3.102 -3.62,-5.027 -4.86,-4.554 -15,1.258 l -43.46,24.871 c -1.62,0.918 -2.4,1.371 -2.52,1.797 -0.11,0.406 0.31,1.152 0.98,2.344 l 3.97,6.926 c 3.05,5.324 5.91,8.511 8.72,9.753 1.34,0.59 4.32,-0.003 8.19,-1.64 0.94,0.097 1.53,0.808 1.81,1.476 0.29,0.684 0.29,1.356 -0.02,1.821 -3.25,1.523 -10.68,6.664 -14.06,10.039 -1.13,0.148 -1.95,-1.172 -2.05,-1.852 1.63,-2.965 1.49,-3.695 -1.57,-9.023 l -22.64,-39.547 c -2.86,-5.02 -4.37,-7.383 -7.26,-6.375 -0.97,-0.192 -1.67,-1.754 -1.63,-2.305 3.66,-3.219 9.02,-8.219 12.52,-12.297 0.98,-0.195 1.73,0.149 2.26,0.731 0.49,0.515 0.73,1.16 0.65,1.765 -1.81,2.524 -3.43,4.723 -4.23,8.293 -0.79,3.426 1.78,8.539 4.39,13.094 l 3.07,5.367 c 0.7,1.235 1.15,1.993 1.58,2.11 0.45,0.117 1.27,-0.348 2.63,-1.129 l 43.65,-24.988 c 10.27,-5.875 11.07,-7.04 8.57,-12.477 l -1.72,-3.684 c -0.01,-0.836 0.45,-1.437 1.2,-1.824 0.55,-0.273 1.36,-0.469 1.88,-0.121 0.14,0.16 7.61,13.891 7.61,13.891 l 7.6,12.605 c 0.11,0.852 -0.5,1.485 -1.07,1.871" /><path
         id="path48"
         style="fill:#ffffff;fill-opacity:1;fill-rule:nonzero;stroke:none"
         d="m 2234.84,822.645 c -0.89,-0.129 -1.44,-0.602 -1.76,-1.27 -0.32,-0.66 -0.36,-1.391 -0.11,-1.937 4.9,-3.821 8.46,-7.625 9.19,-9.86 0.75,-2.656 0.49,-6.129 -1.07,-14.242 -1.9,-9.84 -3.54,-11.672 -4.94,-12.609 -2.06,-1.309 -5.81,-0.926 -11.56,0.179 l -15.58,3 -2.11,0.766 c -0.3,0.426 -0.13,1.402 0.16,2.933 l 1.24,6.418 c 0.75,3.872 1.39,6.762 2.15,8.282 0.93,2.011 2.71,2.324 4.48,2.383 l 4.51,0.164 c 0.84,0.406 1.14,1.308 1.21,1.968 0.07,0.743 -0.1,1.352 -0.5,1.696 -0.21,0.093 -4.3,0.691 -4.3,0.691 l -6.6,0.996 -6.74,1.559 -4.33,1.019 c -0.72,-0.179 -1.11,-0.683 -1.32,-1.398 -0.19,-0.637 -0.23,-1.582 0.24,-2.149 0.17,-0.121 4.53,-1.875 4.53,-1.875 2.64,-1.089 2.93,-1.91 3.09,-3.054 0.16,-1.309 -0.25,-4.731 -1.14,-9.383 l -1.23,-6.41 c -0.63,-3.219 -0.63,-3.219 -3.3,-2.707 l -22.09,4.258 c -3.99,0.765 -3.99,0.765 -3.43,3.656 l 1.52,7.949 c 0.93,4.855 1.71,8.312 2.69,10.5 2.33,5.004 5.99,5.437 11.06,6.043 l 0.7,0.07 c 0.62,0.301 0.93,0.867 1.03,1.59 0.09,0.621 0.02,1.496 -0.46,1.969 -0.26,0.129 -1.81,0.277 -1.81,0.277 -4.95,0.5 -11.73,1.18 -13.59,0.899 l -0.4,-0.063 0.03,-0.394 c 0.08,-1.309 -1.15,-7.692 -2.45,-14.454 -0.08,-0.421 -4.07,-21.203 -4.07,-21.203 l -2.84,-12.953 c 0.18,-0.832 0.96,-1.238 1.63,-1.41 0.39,-0.098 1.31,-0.266 1.83,0.254 0.11,0.164 0.66,1.898 0.66,1.898 1.91,6.02 3.25,5.973 14.72,3.77 l 39.8,-7.641 c 11.61,-2.238 12.75,-3.082 12.14,-9.035 l -0.38,-3.719 c 0.5,-0.91 1.38,-1.148 2.05,-1.164 0.7,-0.011 1.25,0.188 1.54,0.555 0.08,0.191 2.63,15.273 2.63,15.273 l 1.92,9.942 6.01,29.539 c -2.91,2.488 -10.89,6.894 -14.65,8.434" /><path
         id="path50"
         style="fill:#ffffff;fill-opacity:1;fill-rule:nonzero;stroke:none"
         d="m 2171.58,899.344 -1.69,7.832 c -1.29,5.996 -1.31,10.258 -0.02,13.031 0.59,1.313 3.21,2.797 7.17,4.059 0.68,0.711 0.61,1.632 0.4,2.257 -0.23,0.739 -0.69,1.247 -1.24,1.403 -3.44,-0.949 -12.43,-1.879 -17.22,-1.531 -0.96,-0.602 -0.68,-2.145 -0.28,-2.727 3.18,-1.18 3.57,-1.828 4.88,-7.855 l 9.65,-44.633 c 1.22,-5.668 1.66,-8.414 -1.14,-9.524 -0.6,-0.789 -0.09,-2.429 0.31,-2.816 4.86,-0.047 12.2,-0.356 17.57,-1.168 0.85,0.48 1.18,1.203 1.21,1.973 0.02,0.73 -0.22,1.378 -0.69,1.796 -3.04,0.75 -5.72,1.348 -8.72,3.536 -2.87,2.089 -4.39,7.625 -5.52,12.769 l -1.31,6.067 c -0.3,1.378 -0.46,2.253 -0.23,2.609 0.25,0.379 1.17,0.558 2.7,0.851 l 49.31,9.403 c 11.62,2.207 12.99,1.847 14.62,-3.918 l 1.08,-3.914 c 0.54,-0.653 1.28,-0.805 2.11,-0.602 0.62,0.149 1.33,0.524 1.5,1.137 0,0.207 -3.24,15.496 -3.24,15.496 l -2.44,14.527 c -0.47,0.707 -1.34,0.793 -2.04,0.711 -0.39,-0.05 -1.32,-0.242 -1.59,-0.914 -0.04,-0.215 0.3,-3.816 0.3,-3.816 0.53,-6.16 -0.71,-6.602 -12.19,-8.789 l -49.31,-9.383 c -3.33,-0.641 -3.33,-0.645 -3.94,2.133" /><path
         id="path52"
         style="fill:#ffffff;fill-opacity:1;fill-rule:nonzero;stroke:none"
         d="m 1727.84,1069.63 c 0.22,0.07 2.5,1.64 2.5,1.64 5,3.36 5.7,3 12.48,-6.47 0,-0.01 15.86,-21.43 15.86,-21.43 7.95,-10.87 15.08,-15.93 23.09,-16.42 6.29,-0.49 12.87,1.83 20.71,7.32 7.31,5.1 11.73,11.46 12.77,18.37 1.25,7.79 -1.54,16.64 -8.52,27.04 l -7.08,10.55 c -1.67,2.49 -10.05,15.14 -10.79,19.58 -0.3,1.3 0.91,3.15 3.07,4.71 l 2.17,1.58 c 0.18,0.3 -0.5,2.21 -0.5,2.21 l -1.46,0.72 c -0.25,-0.07 -10.07,-6.39 -10.07,-6.39 l -11.05,-6.27 c -0.19,-0.22 -0.08,-1.79 -0.08,-1.79 l 1.49,-1.39 c 0.33,0.02 2.84,1.27 2.84,1.27 2.48,1.23 4.45,1.54 5.71,0.9 3.07,-1.6 8.93,-10.41 12.81,-16.24 l 8.51,-12.69 c 4.86,-7.23 7.45,-13.59 7.77,-19.16 0.39,-6.82 -2.64,-12.44 -9.09,-16.95 -12.6,-8.81 -23.55,-5.47 -35.48,10.83 l -14.45,19.61 -0.4,0.55 c -6.46,9.02 -7.14,9.96 -2.85,14.12 l 1.94,1.87 c 0.28,0.69 0.05,1.38 -0.51,1.99 -0.2,0.23 -0.93,0.97 -1.66,0.83 -0.21,-0.11 -10.6,-8.98 -10.6,-8.98 l -10.87,-8.37 c -0.39,-0.76 -0.09,-1.63 0.33,-2.25 0.42,-0.6 0.94,-0.93 1.41,-0.89" /><path
         id="path54"
         style="fill:#ffffff;fill-opacity:1;fill-rule:nonzero;stroke:none"
         d="m 1839.36,1137.66 c 6.57,0.46 7.61,-0.43 8.56,-7.34 l 2.94,-24.63 2,-22.83 0.27,-3.48 c 0.63,-7.72 -0.81,-8.68 -5.05,-10.31 -0.01,0 -2.39,-0.95 -2.39,-0.95 -0.5,-0.53 -0.6,-1.16 -0.46,-1.82 0.17,-0.75 0.6,-1.4 1.11,-1.66 0.33,-0.02 11.54,3.21 11.54,3.21 l 12.33,2.83 c 0.62,0.4 0.85,1.03 0.78,1.78 -0.05,0.64 -0.34,1.45 -1.02,1.81 -0.27,0.03 -4.54,-0.72 -4.54,-0.72 -1.66,-0.3 -2.68,-0.21 -3.41,0.3 -1.34,0.93 -2.02,3.62 -2.81,8.25 l -3.35,24.88 -0.29,2.42 c 0,0 -1.82,16.33 -2.08,18.62 1.11,-1.65 5.31,-7.92 5.31,-7.92 l 3.77,-5.8 13.6,-19.73 1.94,-2.78 c 3.65,-5.21 9.14,-13.08 11.55,-17.72 0.49,-0.57 1.28,-0.55 1.52,-0.51 0.68,0.12 1.16,0.42 1.37,0.88 1.09,5.18 4.11,15.89 7.73,27.37 l 6.61,21.09 2.24,7.48 c 0,0 1.61,5.21 2.15,6.94 0.45,-2.45 8.29,-45.12 8.29,-45.12 0.4,-2.42 0.7,-4.18 0.73,-5.47 0.05,-2.6 -0.94,-3.39 -4.22,-3.97 l -3.18,-0.58 c -0.27,-0.16 -0.56,-1.88 -0.56,-1.88 l 1.11,-1.71 c 0.26,-0.06 13.64,1.25 13.64,1.25 l 13.17,0.6 c 0.61,0.37 0.85,0.86 0.87,1.5 0,0.7 -0.24,1.62 -0.86,2.11 -0.27,0.1 -3.88,0.18 -3.88,0.18 -4.71,0.16 -5.23,2.48 -6.37,7.56 l -0.17,0.82 -9.76,48.37 c -1.38,7.59 -1.03,9.48 5.65,10.75 l 2.3,0.39 c 0.67,0.58 0.59,1.45 0.54,1.8 -0.05,0.33 -0.28,1.42 -0.99,1.81 -0.26,0.06 -10.09,-1 -10.09,-1 l -8.83,-0.28 0.03,-0.48 c 0.07,-0.49 0.1,-0.99 0.12,-1.52 0.11,-5 -1.96,-11.64 -4.93,-21.21 l -7.44,-24.92 c 0,0 -5.1,-15.94 -5.12,-16.05 -0.06,0.8 -8.25,11.89 -8.25,11.89 l -1.46,2.04 v -0.01 l -16.98,24.22 c -3.93,5.29 -8.47,11.93 -8.76,16.57 l -0.05,0.53 -9.42,-2.56 c -0.22,-0.05 -9,-1.77 -9,-1.77 -0.65,-0.45 -0.9,-1.07 -0.9,-1.79 0,-0.77 0.27,-1.47 0.73,-1.83 0.32,-0.09 2.11,0.11 2.12,0.1" /><path
         id="path56"
         style="fill:#ffffff;fill-opacity:1;fill-rule:nonzero;stroke:none"
         d="m 1980.36,1075.15 9.81,-2.48 29.15,-7.72 c 2.66,2.78 7.51,10.51 9.27,14.16 -0.08,0.89 -0.51,1.45 -1.17,1.82 -0.64,0.37 -1.36,0.45 -1.93,0.22 -4.1,-4.67 -8.1,-8 -10.37,-8.6 -2.71,-0.59 -6.14,-0.14 -14.17,1.89 -9.7,2.45 -11.43,4.2 -12.29,5.65 -1.2,2.14 -0.59,5.86 0.84,11.54 l 3.88,15.39 0.9,2.05 c 0.44,0.27 1.41,0.05 2.92,-0.33 l 6.33,-1.6 c 3.99,-1.01 6.74,-1.8 8.15,-2.63 1.95,-1.05 2.17,-2.84 2.12,-4.61 l -0.1,-4.51 c 0.36,-0.86 1.25,-1.22 1.91,-1.32 0.72,-0.11 1.35,0.04 1.72,0.4 0.09,0.2 0.93,4.27 0.93,4.27 l 1.38,6.51 1.94,6.63 1.28,4.28 c -0.14,0.73 -0.63,1.16 -1.33,1.39 -0.63,0.23 -1.58,0.33 -2.16,-0.1 -0.14,-0.17 -2.14,-4.43 -2.14,-4.43 -1.23,-2.56 -2.07,-2.81 -3.22,-2.9 -1.32,-0.1 -4.62,0.5 -9.3,1.67 l -6.33,1.6 c -3.19,0.81 -3.19,0.81 -2.51,3.45 l 5.52,21.8 c 0.51,2.06 0.79,3.18 1.3,3.49 0.39,0.23 1.1,0.1 2.54,-0.26 l 7.85,-1.98 c 4.81,-1.22 8.22,-2.19 10.32,-3.3 4.88,-2.61 5.1,-6.29 5.4,-11.39 l 0.06,-0.71 c 0.25,-0.61 0.8,-0.97 1.52,-1.12 0.6,-0.11 1.48,-0.09 1.98,0.35 0.13,0.26 0.39,1.79 0.39,1.79 0.78,4.92 1.84,11.65 1.68,13.53 l -0.04,0.4 h -0.4 c -1.32,0 -7.7,1.61 -14.46,3.31 -0.25,0.07 -20.76,5.25 -20.76,5.25 l -12.77,3.58 c -0.84,-0.14 -1.29,-0.89 -1.51,-1.55 -0.12,-0.38 -0.34,-1.29 0.14,-1.84 0.17,-0.11 1.87,-0.76 1.87,-0.76 5.89,-2.27 5.78,-3.59 2.92,-14.92 l -9.94,-39.28 c -2.9,-11.48 -3.79,-12.56 -9.71,-11.6 l -3.68,0.58 c -0.94,-0.44 -1.22,-1.3 -1.28,-1.96 -0.06,-0.7 0.1,-1.28 0.46,-1.57 0.19,-0.11 15.09,-3.53 15.09,-3.53" /><path
         id="path58"
         style="fill:#ffffff;fill-opacity:1;fill-rule:nonzero;stroke:none"
         d="m 2078.73,1069.07 c 0.01,0.27 0.86,0.88 1.43,1.29 0.01,0 19.26,13.55 19.26,13.55 0,0 3.94,2.53 5.33,3.42 -0.32,-1.19 -1.76,-6.48 -1.76,-6.48 l -6.5,-21 c -0.32,-1.03 -0.68,-2.14 -1.11,-2.29 -0.42,-0.14 -1.33,0.44 -2.25,1.1 l -12.59,8.84 c -0.8,0.57 -1.81,1.27 -1.81,1.57 z m 34.29,36.59 c 2.27,3.22 6.12,4.22 8.9,2.26 2.84,-2.01 3.11,-5.91 0.84,-9.13 -2.34,-3.31 -6.05,-4.28 -8.89,-2.27 -2.76,1.95 -3.19,5.84 -0.85,9.14 z m -71.17,-50.69 6.9,-4 3.22,-2.07 6.38,-4.25 c 0.85,-0.17 1.53,0.15 2.03,0.78 0.5,0.62 0.68,1.39 0.46,1.96 -0.14,0.18 -3.05,2.39 -3.05,2.39 -2.09,1.56 -1.91,2.16 -1.35,2.97 0.71,1.01 3.21,3.16 7.43,6.38 l 7.64,5.21 c 1.81,1.33 2.32,1.31 4.55,-0.27 l 15.16,-10.64 c 2.68,-1.88 2.7,-2.24 1.99,-4.47 -0.01,-0.01 -3.62,-12.53 -3.62,-12.53 -0.72,-2.32 -1.5,-4.63 -2.24,-5.67 -0.45,-0.63 -1.82,-0.3 -3.66,0.9 l -2.74,1.76 c -0.79,0.09 -1.39,-0.29 -1.8,-0.93 -0.46,-0.69 -0.55,-1.49 -0.28,-2.07 0.13,-0.16 2.1,-1.62 2.1,-1.62 l 8.3,-6.32 10.4,-8.75 c 0.92,-0.09 1.55,0.49 1.9,0.97 0.43,0.63 0.59,1.25 0.43,1.79 -0.11,0.18 -2.27,2.35 -2.27,2.35 -3.35,3.36 -3.42,5.66 -0.44,15.31 l 13.51,45.9 1.65,5.61 1.77,5.96 c 4.27,-0.86 8.51,0.78 10.86,4.11 3.24,4.61 2.39,11.4 -3.03,15.23 -5.42,3.83 -12.11,2.35 -15.37,-2.25 -2.52,-3.57 -2.51,-8.52 0.2,-12.35 l -6.3,-4.4 -26.89,-18.2 c 0.79,-0.06 -21.87,-14.38 -15.28,-10.05 l -7.3,-4.78 c -3.07,-2.14 -5.67,-2.46 -8.43,-1.06 l -3.31,1.65 c -0.8,-0.03 -1.36,-0.48 -1.74,-1.16 -0.31,-0.54 -0.55,-1.3 -0.3,-1.86 0.18,-0.21 2.52,-1.53 2.52,-1.53" /><path
         id="path60"
         style="fill:#231f20;fill-opacity:1;fill-rule:nonzero;stroke:none"
         d="m 217.945,161.469 c 0,23.562 -0.761,67.25 -7.218,78.644 -2.664,4.563 -9.5,7.219 -19,7.981 l -9.497,0.761 c -2.281,2.657 -1.519,7.598 0.758,9.122 14.442,-0.762 28.496,-1.145 43.313,-1.145 15.961,0 26.215,0.383 39.898,1.145 3.035,-1.907 2.656,-6.836 0.754,-9.122 l -9.113,-0.761 c -9.496,-0.762 -16.719,-4.18 -19,-9.114 -5.317,-12.539 -5.317,-56.242 -5.317,-77.511 v -42.938 c 0,-33.0505 -5.324,-68.0115 -26.597,-90.8005 C 190.59,9.87109 162.473,0 134.359,0 108.141,0 81.9258,4.92969 63.3086,20.8906 43.1719,37.6016 33.668,65.3398 33.668,110.551 v 89.668 c 0,39.515 -0.7539,45.98 -22.793,47.875 l -9.5,0.761 c -2.277344,1.524 -1.519531,7.977 0.76172,9.122 18.99998,-0.762 31.91408,-1.145 47.11328,-1.145 15.5781,0 28.1172,0.383 46.7344,1.145 2.2812,-1.145 3.0351,-7.598 0.7578,-9.122 l -9.1172,-0.761 c -22.0352,-1.895 -22.7969,-8.36 -22.7969,-47.875 v -82.071 c 0,-61.1675 18.9961,-101.4371 77.1249,-101.4371 55.094,0 75.992,43.3204 75.992,101.0591 v 43.699" /><path
         id="path62"
         style="fill:#231f20;fill-opacity:1;fill-rule:nonzero;stroke:none"
         d="m 434.555,107.52 c 8.738,-17.8598 17.097,-35.3403 26.215,-52.0512 h 0.761 c 10.258,17.8515 19.754,37.6132 29.25,56.9922 l 35.719,72.57 c 17.098,34.571 28.117,55.465 28.871,72.946 12.922,-1.145 20.902,-1.145 28.496,-1.145 9.504,0 22.039,0.383 33.821,1.145 2.281,-1.524 2.281,-7.981 0.375,-9.504 l -7.977,-0.762 c -23.938,-2.273 -26.973,-9.492 -26.594,-36.09 0.758,-40.281 1.141,-110.562 4.18,-165.2812 1.141,-18.9882 0.758,-29.25 18.613,-30.7695 l 12.16,-1.1406 c 2.282,-2.2813 1.899,-7.98048 -0.757,-9.50001 -15.583,0.76172 -31.157,1.14062 -44.833,1.14062 -13.3,0 -30.398,-0.3789 -45.972,-1.14062 -2.66,1.90234 -3.043,7.21871 -0.762,9.50001 l 11.016,1.1406 c 18.617,1.8985 18.617,7.9805 18.617,32.3008 l -1.137,158.4379 h -0.762 c -2.656,-4.18 -17.093,-34.579 -24.699,-49.399 L 495.344,90.4219 C 478.25,56.9805 461.148,21.2695 454.309,3.80078 c -0.758,-1.15234 -2.282,-1.53125 -3.797,-1.53125 -0.758,0 -2.664,0.37891 -3.418,1.53125 -6.461,20.12892 -24.699,57.35942 -33.442,75.98052 l -34.191,73.3277 c -7.981,17.473 -15.957,37.243 -24.316,54.711 h -0.758 c -1.524,-23.558 -2.66,-45.601 -3.805,-67.629 -1.137,-23.171 -2.656,-56.9918 -2.656,-89.2808 0,-28.1211 2.281,-34.1993 17.097,-35.3399 l 14.438,-1.1406 c 2.66,-2.2813 2.277,-8.35939 -0.383,-9.50001 -12.914,0.76172 -27.734,1.14062 -42.172,1.14062 -12.16,0 -25.836,-0.3789 -38.754,-1.14062 -2.277,1.90234 -3.039,7.60161 -0.757,9.50001 l 8.359,1.1406 c 15.957,2.2813 21.273,4.5586 23.555,31.1602 2.281,25.0703 4.179,45.9687 6.461,83.5785 1.898,31.543 3.418,63.839 4.179,84.73 0.754,23.941 -2.281,29.637 -25.461,32.672 l -6.078,0.762 c -1.898,2.285 -1.519,7.98 1.524,9.504 11.394,-0.762 20.511,-1.145 30.015,-1.145 8.735,0 18.992,0 31.531,1.145 -1.515,-14.817 7.981,-38.375 19.758,-62.696 l 43.317,-87.761" /><path
         id="path64"
         style="fill:#231f20;fill-opacity:1;fill-rule:nonzero;stroke:none"
         d="m 697.145,199.84 c 0,39.512 -0.762,45.215 -23.176,47.871 l -6.082,0.762 c -2.274,1.523 -1.52,8.359 0.761,9.504 16.34,-0.762 29.258,-1.145 44.836,-1.145 h 71.43 c 24.316,0 46.734,0 51.289,1.145 2.281,-6.465 4.563,-33.817 6.078,-50.536 -1.515,-2.281 -7.597,-3.043 -9.496,-0.761 -5.699,17.859 -9.117,31.16 -28.879,36.101 -7.976,1.895 -20.133,2.274 -36.847,2.274 h -27.36 c -11.394,0 -11.394,-0.762 -11.394,-15.196 v -75.988 c 0,-10.641 1.136,-10.641 12.531,-10.641 h 22.043 c 15.957,0 27.734,0.758 32.293,2.282 4.558,1.519 7.219,3.797 9.117,13.297 l 3.043,15.57 c 1.898,2.293 8.359,2.293 9.879,-0.367 0,-9.121 -1.52,-23.942 -1.52,-38.383 0,-13.68 1.52,-28.109 1.52,-36.4688 C 815.691,96.5 809.23,96.5 807.332,98.7813 l -3.426,14.8087 c -1.515,6.851 -4.176,12.539 -11.773,14.441 -5.32,1.528 -14.442,1.899 -29.254,1.899 h -22.043 c -11.395,0 -12.531,-0.371 -12.531,-10.258 V 66.1016 c 0,-20.1407 1.136,-33.0625 7.215,-39.5118 4.558,-4.5585 12.539,-8.7382 45.972,-8.7382 29.258,0 40.274,1.5195 48.633,5.6992 6.84,3.8008 17.098,17.0898 26.977,36.8594 2.66,1.8906 7.976,0.75 9.496,-2.6719 C 863.941,44.4492 854.441,15.1914 849.504,4.92969 815.309,5.69141 781.492,6.07031 747.68,6.07031 h -34.196 c -16.339,0 -29.257,-0.3789 -51.675,-1.14062 -2.278,1.14062 -3.036,7.21871 -0.758,9.50001 l 12.539,1.1406 c 21.656,1.8985 23.555,7.6016 23.555,47.4883 V 199.84" /><path
         id="path66"
         style="fill:#231f20;fill-opacity:1;fill-rule:nonzero;stroke:none"
         d="m 1005.7,284.949 c 9.87,0 17.09,8.36 17.09,20.137 0,11.394 -7.22,19.754 -17.09,19.754 -9.509,0 -17.102,-8.36 -17.102,-19.754 0,-11.777 7.593,-20.137 17.102,-20.137 z m 32.29,20.137 c 0,-16.34 -13.3,-30.773 -32.29,-30.773 -19.005,0 -32.302,14.433 -32.302,30.773 0,15.957 13.297,30.781 32.302,30.781 18.99,0 32.29,-14.824 32.29,-30.781 z M 965.039,128.031 c -3.039,-8.742 -2.66,-9.121 7.981,-9.121 h 46.73 c 11.02,0 11.78,1.531 8.36,11.781 l -20.52,61.93 c -3.04,9.129 -6.46,19.379 -8.735,23.938 h -0.761 c -1.141,-1.887 -4.938,-11.02 -9.117,-22.411 z m 75.231,-33.8122 c -2.66,8.3632 -4.18,9.5002 -15.58,9.5002 h -57.37 c -9.5,0 -11.777,-1.137 -14.437,-9.1174 L 939.582,54.6992 c -5.699,-17.0976 -8.355,-27.3476 -8.355,-31.5273 0,-4.5625 1.902,-6.8399 11.015,-7.6016 l 12.539,-1.1406 c 2.66,-1.8984 2.66,-7.98048 -0.761,-9.50001 -9.875,0.76172 -21.657,0.76172 -39.512,1.14062 -12.539,0 -26.215,-0.76172 -36.473,-1.14062 -2.281,1.51953 -3.043,7.60161 -0.762,9.50001 l 12.54,1.1406 c 9.117,0.7617 17.472,4.9297 22.796,18.6211 6.836,17.4805 17.477,42.168 33.434,84.7186 l 38.754,102.59 c 5.316,13.672 7.598,20.898 6.461,26.973 9.112,2.668 15.572,9.504 19.752,14.445 2.28,0 4.94,-0.762 5.7,-3.43 4.94,-16.707 11.02,-34.187 16.72,-50.906 l 52.05,-152.7304 c 11.02,-32.6797 15.96,-38.3828 32.3,-40.2813 l 10.25,-1.1406 c 2.67,-1.8984 1.9,-7.98048 0,-9.50001 -15.57,0.76172 -28.87,1.14062 -45.97,1.14062 -18.23,0 -32.67,-0.76172 -43.69,-1.14062 -3.04,1.51953 -3.42,7.60161 -0.76,9.50001 l 11.02,1.1406 c 7.98,0.7617 13.3,3.0391 13.3,6.8399 0,4.1796 -1.9,11.0117 -4.95,20.1406 l -16.71,51.668" /><path
         id="path68"
         style="fill:#231f20;fill-opacity:1;fill-rule:nonzero;stroke:none"
         d="m 1477.63,161.469 c 0,23.562 -0.76,67.25 -7.22,78.644 -2.66,4.563 -9.49,7.219 -19,7.981 l -9.49,0.761 c -2.28,2.657 -1.52,7.598 0.76,9.122 14.44,-0.762 28.49,-1.145 43.31,-1.145 15.96,0 26.21,0.383 39.9,1.145 3.03,-1.907 2.65,-6.836 0.75,-9.122 l -9.11,-0.761 c -9.5,-0.762 -16.72,-4.18 -19,-9.114 -5.32,-12.539 -5.32,-56.242 -5.32,-77.511 v -42.938 c 0,-33.0505 -5.32,-68.0115 -26.6,-90.8005 C 1450.28,9.87109 1422.16,0 1394.05,0 c -26.22,0 -52.44,4.92969 -71.05,20.8906 -20.14,16.711 -29.64,44.4492 -29.64,89.6604 v 89.668 c 0,39.515 -0.76,45.98 -22.8,47.875 l -9.5,0.761 c -2.27,1.524 -1.52,7.977 0.76,9.122 19,-0.762 31.92,-1.145 47.12,-1.145 15.57,0 28.11,0.383 46.73,1.145 2.28,-1.145 3.04,-7.598 0.76,-9.122 l -9.12,-0.761 c -22.03,-1.895 -22.8,-8.36 -22.8,-47.875 v -82.071 c 0,-61.1675 19,-101.4371 77.13,-101.4371 55.1,0 75.99,43.3204 75.99,101.0591 v 43.699" /><path
         id="path70"
         style="fill:#231f20;fill-opacity:1;fill-rule:nonzero;stroke:none"
         d="m 1799.48,70.6602 c 0,-11.3985 0,-56.6094 1.15,-66.48832 C 1799.87,1.89063 1797.59,0 1793.41,0 c -4.57,6.44922 -15.58,19.75 -48.64,57.3594 l -88.14,100.3126 c -10.26,11.777 -36.1,42.93 -44.08,51.289 h -0.76 c -1.52,-4.563 -1.9,-13.301 -1.9,-24.699 V 101.43 c 0,-17.848 0.38,-67.2386 6.84,-78.6409 2.28,-4.1797 9.88,-6.4571 19.38,-7.2188 l 11.78,-1.1406 c 2.28,-3.0391 1.9,-7.59767 -0.76,-9.50001 -17.1,0.76172 -30.4,1.14062 -44.46,1.14062 -15.95,0 -26.21,-0.3789 -39.51,-1.14062 -2.66,1.90234 -3.04,7.21871 -0.76,9.50001 l 10.26,1.1406 c 8.74,1.1406 14.82,3.418 16.72,7.6016 5.31,13.6679 4.93,60.0273 4.93,78.2581 v 109.808 c 0,10.641 -0.37,18.621 -8.36,27.364 -5.31,5.312 -14.43,7.976 -23.55,9.109 l -6.46,0.762 c -2.28,2.285 -2.28,7.98 0.76,9.504 15.96,-1.145 36.1,-1.145 42.94,-1.145 6.08,0 12.53,0.383 17.47,1.145 7.6,-19.375 52.43,-69.536 64.97,-83.598 l 36.86,-41.399 c 26.21,-29.261 44.83,-50.5386 62.69,-68.7691 h 0.76 c 1.52,1.8907 1.52,7.9688 1.52,15.9493 v 81.3088 c 0,17.851 -0.38,67.25 -7.6,78.644 -2.28,3.418 -8.36,5.703 -23.56,7.598 l -6.46,0.762 c -2.66,2.285 -2.28,8.359 0.76,9.504 17.48,-0.762 30.4,-1.145 44.84,-1.145 16.33,0 26.21,0.383 39.13,1.145 3.04,-1.907 3.04,-7.219 0.76,-9.504 l -5.32,-0.762 c -12.16,-1.895 -19.75,-4.93 -21.28,-7.977 -6.45,-13.675 -5.7,-60.793 -5.7,-78.265 V 70.6602" /><path
         id="path72"
         style="fill:#231f20;fill-opacity:1;fill-rule:nonzero;stroke:none"
         d="m 1907.8,199.082 c 0,40.27 -0.76,46.734 -23.17,48.629 l -9.5,0.762 c -2.28,1.523 -1.51,8.359 0.77,9.504 18.99,-0.762 31.9,-1.145 47.86,-1.145 15.21,0 28.12,0.383 47.12,1.145 2.28,-1.145 3.04,-7.981 0.75,-9.504 l -9.49,-0.762 c -22.42,-1.895 -23.17,-8.359 -23.17,-48.629 V 63.832 c 0,-40.2812 0.75,-45.6015 23.17,-48.2617 l 9.49,-1.1406 c 2.29,-1.5195 1.53,-8.35939 -0.75,-9.50001 -19,0.76172 -31.91,1.14062 -47.12,1.14062 -15.96,0 -28.87,-0.3789 -47.86,-1.14062 -2.28,1.14062 -3.05,7.21871 -0.77,9.50001 l 9.5,1.1406 c 22.41,2.6602 23.17,7.9805 23.17,48.2617 v 135.25" /><path
         id="path74"
         style="fill:#231f20;fill-opacity:1;fill-rule:nonzero;stroke:none"
         d="m 2040.8,216.559 c -8.73,21.281 -14.43,29.257 -30.77,31.152 l -6.83,0.762 c -2.67,2.285 -2.29,7.597 0.75,9.504 11.02,-0.762 23.18,-1.145 39.52,-1.145 16.72,0 30.01,0.383 45.97,1.145 2.66,-1.524 3.42,-7.219 0.76,-9.504 l -5.7,-0.762 c -14.44,-1.895 -17.48,-4.18 -17.86,-7.215 0.76,-3.801 7.22,-24.316 19,-53.195 17.48,-44.071 34.96,-87.7619 53.95,-131.0705 11.78,25.0703 27.74,64.2105 36.48,84.3395 11.01,25.828 28.87,68.77 35.33,85.11 3.05,7.98 3.42,12.16 3.42,14.816 0,2.664 -3.8,5.703 -17.09,7.215 l -6.85,0.762 c -2.66,2.285 -1.89,7.98 0.76,9.504 10.65,-0.762 25.08,-1.145 39.51,-1.145 12.54,0 24.32,0.383 36.86,1.145 2.67,-1.524 2.67,-7.598 0.76,-9.504 l -11.39,-0.762 c -9.13,-0.75 -14.82,-5.313 -19.76,-13.289 -10.65,-17.863 -25.46,-48.633 -42.56,-87.391 l -20.52,-46.73 C 2159.35,65.3398 2141.5,21.2695 2135.03,1.12891 2133.89,0.371094 2132.38,0 2130.85,0 c -1.89,0 -3.8,0.371094 -5.69,1.12891 -4.18,15.96089 -11.03,34.58199 -17.48,50.54299 L 2040.8,216.559" /><path
         id="path76"
         style="fill:#231f20;fill-opacity:1;fill-rule:nonzero;stroke:none"
         d="m 2323.53,199.84 c 0,39.512 -0.76,45.215 -23.19,47.871 l -6.07,0.762 c -2.28,1.523 -1.52,8.359 0.76,9.504 16.34,-0.762 29.26,-1.145 44.84,-1.145 h 71.42 c 24.32,0 46.73,0 51.29,1.145 2.29,-6.465 4.56,-33.817 6.08,-50.536 -1.52,-2.281 -7.59,-3.043 -9.5,-0.761 -5.7,17.859 -9.12,31.16 -28.87,36.101 -7.98,1.895 -20.14,2.274 -36.86,2.274 h -27.35 c -11.4,0 -11.4,-0.762 -11.4,-15.196 v -75.988 c 0,-10.641 1.14,-10.641 12.54,-10.641 h 22.03 c 15.96,0 27.73,0.758 32.3,2.282 4.56,1.519 7.22,3.797 9.12,13.297 l 3.03,15.57 c 1.91,2.293 8.36,2.293 9.89,-0.367 0,-9.121 -1.53,-23.942 -1.53,-38.383 0,-13.68 1.53,-28.109 1.53,-36.4688 -1.53,-2.6602 -7.98,-2.6602 -9.89,-0.3789 l -3.41,14.8087 c -1.52,6.851 -4.18,12.539 -11.78,14.441 -5.32,1.528 -14.44,1.899 -29.26,1.899 h -22.03 c -11.4,0 -12.54,-0.371 -12.54,-10.258 V 66.1016 c 0,-20.1407 1.14,-33.0625 7.22,-39.5118 4.56,-4.5585 12.54,-8.7382 45.97,-8.7382 29.25,0 40.28,1.5195 48.64,5.6992 6.83,3.8008 17.09,17.0898 26.97,36.8594 2.65,1.8906 7.98,0.75 9.5,-2.6719 -2.67,-13.2891 -12.16,-42.5469 -17.1,-52.80861 -34.2,0.76172 -68.01,1.14062 -101.83,1.14062 h -34.18 c -16.34,0 -29.26,-0.3789 -51.68,-1.14062 -2.28,1.14062 -3.04,7.21871 -0.76,9.50001 l 12.54,1.1406 c 21.65,1.8985 23.56,7.6016 23.56,47.4883 V 199.84" /><path
         id="path78"
         style="fill:#231f20;fill-opacity:1;fill-rule:nonzero;stroke:none"
         d="m 2591.8,145.129 c 0,-6.84 0,-11.02 1.14,-12.539 1.14,-1.141 6.84,-1.899 26.22,-1.899 13.67,0 28.12,1.52 39.13,9.879 10.26,7.981 19,21.282 19,47.11 0,30.019 -18.62,58.519 -60.79,58.519 -23.56,0 -24.7,-1.523 -24.7,-12.16 z m -31.15,54.332 c 0,36.094 -1.15,42.559 -16.72,44.453 l -12.16,1.524 c -2.66,1.894 -2.66,7.976 0.38,9.5 21.28,1.894 47.49,3.039 84.73,3.039 23.55,0 45.97,-1.907 63.44,-11.399 18.25,-9.5 31.55,-26.598 31.55,-53.187 0,-36.102 -28.5,-55.852 -47.5,-63.461 -1.9,-2.282 0,-6.078 1.9,-9.11 30.39,-49.0192 50.53,-79.4216 76.37,-101.07 6.46,-5.6992 15.96,-9.87891 26.22,-10.64062 1.89,-0.75782 2.27,-3.80079 0.38,-5.3086 -3.43,-1.15234 -9.5,-1.91015 -16.72,-1.91015 -32.29,0 -51.68,9.49997 -78.65,47.87107 -9.88,14.0703 -25.46,40.2774 -37.24,57.3793 -5.69,8.359 -11.77,12.148 -26.97,12.148 -17.1,0 -17.86,-0.379 -17.86,-8.359 V 63.0586 c 0,-39.8867 0.76,-44.4492 22.8,-47.4883 l 7.98,-1.1406 c 2.28,-1.8984 1.51,-8.35939 -0.76,-9.50001 -17.1,0.76172 -30.02,1.14062 -45.22,1.14062 -15.95,0 -29.63,-0.3789 -47.49,-1.14062 -2.28,1.14062 -3.03,6.83981 -0.76,9.50001 l 9.5,1.1406 c 22.03,2.6602 22.8,7.6016 22.8,47.4883 V 199.461" /><path
         id="path80"
         style="fill:#231f20;fill-opacity:1;fill-rule:nonzero;stroke:none"
         d="m 2857.41,0 c -31.91,0 -52.05,9.87109 -59.26,14.0508 -4.56,8.3594 -9.51,35.3281 -10.27,53.1875 1.91,2.6601 7.6,3.4219 9.12,1.1523 5.7,-19.3906 21.28,-56.6211 65.36,-56.6211 31.91,0 47.49,20.8907 47.49,43.6993 0,16.7109 -3.42,35.332 -31.16,53.1912 l -36.09,23.551 c -19,12.539 -41.04,34.187 -41.04,65.359 0,36.09 28.12,65.348 77.51,65.348 11.78,0 25.45,-2.285 35.34,-4.941 4.94,-1.524 10.25,-2.286 13.3,-2.286 3.42,-9.113 6.83,-30.39 6.83,-46.351 -1.52,-2.281 -7.59,-3.418 -9.5,-1.141 -4.93,18.242 -15.19,42.942 -51.67,42.942 -37.24,0 -45.21,-24.7 -45.21,-42.18 0,-22.039 18.24,-38 32.29,-46.742 l 30.4,-18.989 c 23.94,-14.808 47.49,-36.859 47.49,-72.9487 C 2938.34,28.4805 2906.81,0 2857.41,0" /><path
         id="path82"
         style="fill:#231f20;fill-opacity:1;fill-rule:nonzero;stroke:none"
         d="m 3021.97,199.082 c 0,40.27 -0.77,46.734 -23.18,48.629 l -9.5,0.762 c -2.28,1.523 -1.52,8.359 0.76,9.504 19,-0.762 31.92,-1.145 47.87,-1.145 15.2,0 28.12,0.383 47.11,1.145 2.29,-1.145 3.05,-7.981 0.76,-9.504 l -9.49,-0.762 c -22.42,-1.895 -23.18,-8.359 -23.18,-48.629 V 63.832 c 0,-40.2812 0.76,-45.6015 23.18,-48.2617 l 9.49,-1.1406 c 2.29,-1.5195 1.53,-8.35939 -0.76,-9.50001 -18.99,0.76172 -31.91,1.14062 -47.11,1.14062 -15.95,0 -28.87,-0.3789 -47.87,-1.14062 -2.28,1.14062 -3.04,7.21871 -0.76,9.50001 l 9.5,1.1406 c 22.41,2.6602 23.18,7.9805 23.18,48.2617 v 135.25" /><path
         id="path84"
         style="fill:#231f20;fill-opacity:1;fill-rule:nonzero;stroke:none"
         d="m 3256.78,63.0586 c 0,-39.8867 0.76,-45.5898 22.8,-47.4883 l 12.16,-1.1406 c 2.28,-1.5195 1.52,-8.35939 -0.76,-9.50001 -21.66,0.76172 -34.57,1.14062 -49.78,1.14062 -15.19,0 -28.49,-0.3789 -52.81,-1.14062 -2.27,1.14062 -3.04,7.60161 0,9.50001 l 13.68,1.1406 c 21.66,1.8985 23.56,7.6016 23.56,47.4883 V 232.898 c 0,11.778 0,12.157 -11.4,12.157 h -20.9 c -16.34,0 -37.23,-0.762 -46.73,-9.5 -9.12,-8.36 -12.92,-16.715 -17.1,-26.215 -3.03,-2.281 -8.36,-0.379 -9.88,2.66 6.09,17.098 11.78,41.414 14.44,56.609 1.14,0.762 6.08,1.145 7.22,0 2.28,-12.156 14.82,-11.777 32.3,-11.777 h 153.87 c 20.52,0 23.94,0.762 29.64,10.645 1.9,0.753 6.08,0.371 6.84,-1.141 -4.18,-15.578 -6.84,-46.356 -5.71,-57.754 -1.51,-3.043 -7.97,-3.043 -9.87,-0.762 -1.14,9.5 -3.8,23.555 -9.5,27.735 -8.74,6.465 -23.17,9.5 -44.07,9.5 h -26.98 c -11.39,0 -11.02,-0.379 -11.02,-12.918 V 63.0586" /><path
         id="path86"
         style="fill:#231f20;fill-opacity:1;fill-rule:nonzero;stroke:none"
         d="m 3431.59,199.84 c 0,39.512 -0.76,45.215 -23.17,47.871 l -6.08,0.762 c -2.28,1.523 -1.52,8.359 0.76,9.504 16.34,-0.762 29.26,-1.145 44.83,-1.145 h 71.43 c 24.31,0 46.74,0 51.3,1.145 2.27,-6.465 4.56,-33.817 6.07,-50.536 -1.51,-2.281 -7.6,-3.043 -9.49,-0.761 -5.7,17.859 -9.12,31.16 -28.88,36.101 -7.98,1.895 -20.14,2.274 -36.85,2.274 h -27.37 c -11.39,0 -11.39,-0.762 -11.39,-15.196 v -75.988 c 0,-10.641 1.14,-10.641 12.54,-10.641 h 22.04 c 15.95,0 27.73,0.758 32.29,2.282 4.56,1.519 7.22,3.797 9.12,13.297 l 3.04,15.57 c 1.89,2.293 8.36,2.293 9.87,-0.367 0,-9.121 -1.51,-23.942 -1.51,-38.383 0,-13.68 1.51,-28.109 1.51,-36.4688 -1.51,-2.6602 -7.98,-2.6602 -9.87,-0.3789 l -3.42,14.8087 c -1.52,6.851 -4.18,12.539 -11.78,14.441 -5.32,1.528 -14.44,1.899 -29.25,1.899 h -22.04 c -11.4,0 -12.54,-0.371 -12.54,-10.258 V 66.1016 c 0,-20.1407 1.14,-33.0625 7.22,-39.5118 4.55,-4.5585 12.53,-8.7382 45.97,-8.7382 29.26,0 40.27,1.5195 48.63,5.6992 6.84,3.8008 17.1,17.0898 26.98,36.8594 2.66,1.8906 7.98,0.75 9.5,-2.6719 -2.66,-13.2891 -12.16,-42.5469 -17.1,-52.80861 -34.19,0.76172 -68.01,1.14062 -101.82,1.14062 h -34.2 c -16.34,0 -29.26,-0.3789 -51.67,-1.14062 -2.28,1.14062 -3.04,7.21871 -0.76,9.50001 l 12.54,1.1406 c 21.65,1.8985 23.55,7.6016 23.55,47.4883 V 199.84" /><path
         id="path88"
         style="fill:#231f20;fill-opacity:1;fill-rule:nonzero;stroke:none"
         d="m 3759.9,63.0586 c 0,-39.8867 0.76,-45.5898 22.8,-47.4883 l 12.16,-1.1406 c 2.27,-1.5195 1.51,-8.35939 -0.77,-9.50001 -21.66,0.76172 -34.57,1.14062 -49.77,1.14062 -15.2,0 -28.5,-0.3789 -52.81,-1.14062 -2.28,1.14062 -3.04,7.60161 0,9.50001 l 13.68,1.1406 c 21.66,1.8985 23.55,7.6016 23.55,47.4883 V 232.898 c 0,11.778 0,12.157 -11.39,12.157 h -20.9 c -16.34,0 -37.24,-0.762 -46.73,-9.5 -9.12,-8.36 -12.92,-16.715 -17.1,-26.215 -3.04,-2.281 -8.36,-0.379 -9.88,2.66 6.08,17.098 11.77,41.414 14.44,56.609 1.14,0.762 6.07,1.145 7.22,0 2.27,-12.156 14.81,-11.777 32.29,-11.777 h 153.88 c 20.52,0 23.93,0.762 29.64,10.645 1.89,0.753 6.07,0.371 6.83,-1.141 -4.18,-15.578 -6.83,-46.356 -5.7,-57.754 -1.51,-3.043 -7.98,-3.043 -9.87,-0.762 -1.15,9.5 -3.8,23.555 -9.5,27.735 -8.75,6.465 -23.18,9.5 -44.08,9.5 h -26.97 c -11.4,0 -11.02,-0.379 -11.02,-12.918 V 63.0586" /></g></g></svg>